<?xml version="1.0" encoding="utf-8"?>
<!-- Generator: Adobe Illustrator 21.0.0, SVG Export Plug-In . SVG Version: 6.00 Build 0)  -->
<svg version="1.1" id="Layer_1" xmlns="http://www.w3.org/2000/svg" xmlns:xlink="http://www.w3.org/1999/xlink" x="0px" y="0px"
	 viewBox="0 0 612 792" style="enable-background:new 0 0 612 792;" xml:space="preserve">
<style type="text/css">
	.st0{fill:#231F20;}
</style>
<g>
	<g>
		<path class="st0" d="M261.6,558.9h-2.9v1.8h2.8v1.1h-2.8v2.5h2.9v1.1h-4v-7.5h4V558.9z"/>
		<path class="st0" d="M262.6,560.6h1.1v0.4c0.2-0.2,0.4-0.4,0.5-0.4c0.2-0.1,0.3-0.1,0.6-0.1c0.5,0,0.9,0.2,1.2,0.7
			c0.3-0.5,0.8-0.7,1.3-0.7c1,0,1.5,0.6,1.5,1.9v2.9h-1.1v-2.6c0-0.5-0.1-0.8-0.2-1s-0.3-0.3-0.5-0.3c-0.3,0-0.5,0.1-0.6,0.3
			s-0.2,0.6-0.2,1.1v2.4h-1.1v-2.6c0-0.8-0.2-1.3-0.7-1.3c-0.3,0-0.5,0.1-0.6,0.3s-0.2,0.6-0.2,1.1v2.4h-1.1v-4.5H262.6z"/>
		<path class="st0" d="M273.3,560.6h1.1v4.7h-1.1v-0.5c-0.4,0.4-0.9,0.6-1.4,0.6c-0.6,0-1.2-0.2-1.6-0.7s-0.6-1.1-0.6-1.8
			s0.2-1.3,0.6-1.8s0.9-0.7,1.5-0.7c0.5,0,1,0.2,1.4,0.7v-0.5H273.3z M270.8,562.9c0,0.5,0.1,0.8,0.4,1.1c0.2,0.3,0.5,0.4,0.9,0.4
			s0.7-0.1,0.9-0.4c0.2-0.3,0.4-0.7,0.4-1.1c0-0.4-0.1-0.8-0.4-1.1c-0.2-0.3-0.6-0.4-0.9-0.4c-0.4,0-0.7,0.1-0.9,0.4
			C271,562.1,270.8,562.5,270.8,562.9z"/>
		<path class="st0" d="M275.4,558.6c0-0.2,0.1-0.4,0.2-0.5s0.3-0.2,0.5-0.2s0.4,0.1,0.5,0.2c0.1,0.1,0.2,0.3,0.2,0.5
			s-0.1,0.4-0.2,0.5s-0.3,0.2-0.5,0.2s-0.4-0.1-0.5-0.2C275.4,559,275.4,558.8,275.4,558.6z M276.6,560.6v4.7h-1.1v-4.7H276.6z"/>
		<path class="st0" d="M278.7,557.1v8.2h-1.1v-8.2H278.7z"/>
		<path class="st0" d="M287.1,563.5H284l-0.8,1.8H282l3.6-7.9l3.5,7.9h-1.2L287.1,563.5z M286.6,562.4l-1.1-2.5l-1.1,2.5H286.6z"/>
		<path class="st0" d="M290.5,560.6v2.7c0,0.8,0.3,1.2,0.9,1.2s0.9-0.4,0.9-1.2v-2.7h1.1v2.7c0,0.4,0,0.7-0.1,1
			c-0.1,0.2-0.2,0.5-0.5,0.7c-0.4,0.3-0.8,0.5-1.4,0.5c-0.5,0-1-0.2-1.4-0.5c-0.2-0.2-0.4-0.4-0.5-0.7c-0.1-0.2-0.1-0.5-0.1-1v-2.7
			H290.5z"/>
		<path class="st0" d="M295.6,561.6v3.7h-1.1v-3.7h-0.4v-1h0.4v-1.7h1.1v1.7h0.8v1H295.6z"/>
		<path class="st0" d="M296.8,562.9c0-0.7,0.2-1.3,0.7-1.7c0.5-0.5,1-0.7,1.7-0.7s1.3,0.2,1.7,0.7c0.5,0.5,0.7,1.1,0.7,1.8
			s-0.2,1.3-0.7,1.8s-1.1,0.7-1.7,0.7c-0.7,0-1.3-0.2-1.7-0.7C297,564.2,296.8,563.6,296.8,562.9z M297.8,562.9
			c0,0.5,0.1,0.8,0.4,1.1s0.6,0.4,1,0.4s0.7-0.1,1-0.4c0.2-0.3,0.4-0.6,0.4-1.1s-0.1-0.8-0.4-1.1c-0.2-0.3-0.6-0.4-1-0.4
			s-0.7,0.1-1,0.4C298,562.1,297.8,562.5,297.8,562.9z"/>
		<path class="st0" d="M302.5,560.6h1.1v0.4c0.2-0.2,0.4-0.4,0.5-0.4c0.2-0.1,0.3-0.1,0.6-0.1c0.5,0,0.9,0.2,1.2,0.7
			c0.3-0.5,0.8-0.7,1.3-0.7c1,0,1.5,0.6,1.5,1.9v2.9h-1.1v-2.6c0-0.5-0.1-0.8-0.2-1s-0.3-0.3-0.5-0.3c-0.3,0-0.5,0.1-0.6,0.3
			s-0.2,0.6-0.2,1.1v2.4H305v-2.6c0-0.8-0.2-1.3-0.7-1.3c-0.3,0-0.5,0.1-0.6,0.3s-0.2,0.6-0.2,1.1v2.4h-1.1v-4.5H302.5z"/>
		<path class="st0" d="M313.3,560.6h1.1v4.7h-1.1v-0.5c-0.4,0.4-0.9,0.6-1.4,0.6c-0.6,0-1.2-0.2-1.6-0.7s-0.6-1.1-0.6-1.8
			s0.2-1.3,0.6-1.8s0.9-0.7,1.5-0.7c0.5,0,1,0.2,1.4,0.7v-0.5H313.3z M310.8,562.9c0,0.5,0.1,0.8,0.4,1.1c0.2,0.3,0.5,0.4,0.9,0.4
			s0.7-0.1,0.9-0.4c0.2-0.3,0.4-0.7,0.4-1.1c0-0.4-0.1-0.8-0.4-1.1c-0.2-0.3-0.6-0.4-0.9-0.4c-0.4,0-0.7,0.1-0.9,0.4
			C310.9,562.1,310.8,562.5,310.8,562.9z"/>
		<path class="st0" d="M316.5,561.6v3.7h-1.1v-3.7H315v-1h0.5v-1.7h1.1v1.7h0.8v1H316.5z"/>
		<path class="st0" d="M317.7,558.6c0-0.2,0.1-0.4,0.2-0.5s0.3-0.2,0.5-0.2s0.4,0.1,0.5,0.2c0.1,0.1,0.2,0.3,0.2,0.5
			s-0.1,0.4-0.2,0.5s-0.3,0.2-0.5,0.2s-0.4-0.1-0.5-0.2C317.8,559,317.7,558.8,317.7,558.6z M318.9,560.6v4.7h-1.1v-4.7H318.9z"/>
		<path class="st0" d="M319.8,562.9c0-0.7,0.2-1.3,0.7-1.7c0.5-0.5,1-0.7,1.7-0.7s1.3,0.2,1.7,0.7c0.5,0.5,0.7,1.1,0.7,1.8
			s-0.2,1.3-0.7,1.8s-1.1,0.7-1.8,0.7c-0.7,0-1.3-0.2-1.7-0.7C320,564.2,319.8,563.6,319.8,562.9z M320.9,562.9
			c0,0.5,0.1,0.8,0.4,1.1c0.2,0.3,0.6,0.4,1,0.4s0.7-0.1,1-0.4c0.2-0.3,0.4-0.6,0.4-1.1s-0.1-0.8-0.4-1.1c-0.2-0.3-0.6-0.4-1-0.4
			s-0.7,0.1-1,0.4C321,562.1,320.9,562.5,320.9,562.9z"/>
		<path class="st0" d="M325.6,560.6h1.1v0.4c0.4-0.4,0.8-0.6,1.2-0.6c0.5,0,0.9,0.2,1.2,0.5c0.3,0.3,0.4,0.8,0.4,1.4v2.9h-1.1v-2.6
			c0-0.5-0.1-0.8-0.2-1s-0.3-0.3-0.7-0.3c-0.4,0-0.6,0.1-0.7,0.4c-0.1,0.2-0.2,0.6-0.2,1.2v2.3h-1.1v-4.6H325.6z"/>
	</g>
	<g>
		<g>
			<path class="st0" d="M354.3,532.5h-5v2.5c-1.8-2-4.1-3-6.8-3c-5.9,0-10.2,4.9-10.2,11.7c0,6.5,4.3,11.3,10.1,11.3
				c2.7,0,4.8-0.9,6.9-3.1v3c0,4.6-1.8,6.8-5.5,6.8c-2,0-4-1-4.9-2.5c-0.5-0.9-0.7-1.7-0.8-3.6h-4.9c0.1,6.5,4.1,10.6,10.5,10.6
				c3.7,0,6.9-1.5,8.7-4.2c1.4-2.1,1.9-4,1.9-8.2L354.3,532.5L354.3,532.5z M343.4,536.5c3.6,0,6.1,2.8,6.1,6.9c0,4.2-2.4,7.1-6,7.1
				c-3.7,0-6-2.7-6-7C337.4,539.3,339.8,536.5,343.4,536.5z"/>
			<path class="st0" d="M257.5,532.5v21.8h5v-11.2c0-4.6,1.2-6.6,4-6.6c2.3,0,3.3,1.9,3.3,5.8v12h5v-11.2c0-4.7,1.2-6.6,4-6.6
				c2.4,0,3.3,1.6,3.3,5.7v12.1h5v-13.4c0-5.8-2.5-8.9-7.3-8.9c-2.7,0-4.9,1.1-6.4,3.2c-1.3-2.1-3.4-3.2-5.8-3.2
				c-2.2,0-3.3,0.6-5.2,2.6v-2L257.5,532.5L257.5,532.5z"/>
			<path class="st0" d="M306,532.5v2.5c-2.2-2.2-4-3.1-6.8-3.1c-5.8,0-10.3,4.9-10.3,11.3c0,6.8,4.3,11.7,10.4,11.7
				c2.6,0,4.3-0.8,6.7-2.9v2.3h5v-21.8H306z M300.1,536.5c3.7,0,6.2,2.9,6.2,7c0,4.2-2.5,7-6.2,7c-3.5,0-6-2.9-6-7
				S296.7,536.5,300.1,536.5z"/>
			<path class="st0" d="M320,532.5h-5v21.8h5V532.5z M317.6,520.4c-1.9,0-3.3,1.4-3.3,3.3c0,1.8,1.5,3.3,3.3,3.3s3.3-1.5,3.3-3.3
				C320.8,521.9,319.4,520.4,317.6,520.4z"/>
			<rect x="324.6" y="514.9" class="st0" width="5" height="39.4"/>
			<path class="st0" d="M362.4,532.5h-5v12.6c0,3.4,0.6,5.3,2.3,7.1c1.8,1.8,4.1,2.7,7,2.7s5.3-0.9,7-2.7s2.3-3.7,2.3-7.1v-12.6h-5
				V545c0,3.7-1.3,5.4-4.3,5.4c-2.9,0-4.2-1.7-4.2-5.4L362.4,532.5L362.4,532.5z"/>
			<path class="st0" d="M379.3,532.5v21.8h5v-10.5c0-5.4,1.2-7.3,4.6-7.3c3.1,0,4.1,1.4,4.1,5.7v12.1h5V541c0-6.1-2.5-9-7.9-9
				c-2.4,0-3.9,0.7-5.8,2.6v-2L379.3,532.5L379.3,532.5z"/>
		</g>
		<path class="st0" d="M231.9,534.3c-4.2,0-7.7,3.4-7.7,7.7c0,4.2,3.4,7.7,7.7,7.7c4.2,0,7.7-3.4,7.7-7.7
			C239.6,537.7,236.1,534.3,231.9,534.3z M219.9,541.9c0-6.6,5.4-12,12-12s12,5.4,12,12c0,0.4,0,0.9-0.1,1.3
			c-0.1,1.2,0.8,2.1,1.9,2.1c2,0,2.2-2.5,2.2-3.4c0-8.8-7.2-16-16-16s-16,7.2-16,16s7.2,16,16,16c4.7,0,8.9-2,11.9-5.2l3.3,2.8
			c-3.7,4.2-9.1,6.8-15.1,6.8c-11.2,0-20.3-9.1-20.3-20.3s9.1-20.3,20.3-20.3s20.3,9.1,20.3,20.3c0,4.5-2.1,8.2-6.5,8.2
			c-1.9,0-3.1-0.9-3.7-1.8c-2.1,3.4-5.9,5.6-10.2,5.6C225.3,553.9,219.9,548.6,219.9,541.9z M231.9,538.4c1.9,0,3.5,1.6,3.5,3.5
			s-1.6,3.5-3.5,3.5s-3.5-1.6-3.5-3.5S230,538.4,231.9,538.4z"/>
	</g>
</g>
</svg>
