<?xml version="1.0" encoding="utf-8"?>
<!-- Generator: Adobe Illustrator 21.0.0, SVG Export Plug-In . SVG Version: 6.00 Build 0)  -->
<svg version="1.1" id="Layer_1" xmlns="http://www.w3.org/2000/svg" xmlns:xlink="http://www.w3.org/1999/xlink" x="0px" y="0px"
	 viewBox="0 0 612 792" style="enable-background:new 0 0 612 792;" xml:space="preserve">
<style type="text/css">
	.st0{fill-rule:evenodd;clip-rule:evenodd;fill:#C12126;}
	.st1{fill-rule:evenodd;clip-rule:evenodd;fill:#646569;}
	.st2{fill:#C12126;}
	.st3{fill:#999999;}
	.st4{fill-rule:evenodd;clip-rule:evenodd;fill:#999999;}
</style>
<g>
	<g>
		<g>
			<path class="st0" d="M420,330.3H408v6c-4.2-4.7-9.9-7.3-16.4-7.3c-14.2,0-24.5,11.8-24.5,28.1c0,15.7,10.3,27.2,24.4,27.2
				c6.6,0,11.6-2.2,16.5-7.5v7.3c0,10.9-4.3,16.3-13.3,16.3c-4.8,0-9.6-2.4-11.7-6.1c-1.2-2.1-1.6-4.1-2-8.6h-11.8
				c0.1,15.7,9.8,25.5,25.4,25.5c8.9,0,16.7-3.6,21-10.1c3.5-5,4.5-9.6,4.5-19.8V330.3z M393.8,339.7c8.7,0,14.7,6.8,14.7,16.7
				c0,10.2-5.8,17-14.5,17c-8.8,0-14.5-6.6-14.5-16.8C379.4,346.4,385.1,339.7,393.8,339.7z"/>
			<path class="st1" d="M187.2,330.3v52.3h12v-27c0-11.1,3-15.9,9.7-15.9c5.4,0,8,4.5,8,13.9v29h12v-27c0-11.2,3-15.9,9.7-15.9
				c5.8,0,8,3.9,8,13.8v29.1h12v-32.3c0-14-6-21.4-17.6-21.4c-6.4,0-11.7,2.7-15.4,7.7c-3.2-5-8.1-7.7-13.9-7.7
				c-5.2,0-7.9,1.4-12.4,6.2v-4.8H187.2z"/>
			<path class="st1" d="M303.8,330.3v6.1c-5.2-5.3-9.7-7.5-16.3-7.5c-14,0-24.7,11.7-24.7,27.2c0,16.4,10.4,28.1,25,28.1
				c6.3,0,10.4-1.9,16-7.1v5.5h12.1v-52.3H303.8z M289.7,339.7c8.8,0,14.9,7,14.9,16.8c0,10.1-6.1,16.9-14.9,16.9
				c-8.5,0-14.5-7.1-14.5-16.9C275.1,346.8,281.3,339.7,289.7,339.7z"/>
			<path class="st1" d="M337.6,330.3h-12.1v52.3h12.1V330.3z M331.6,301.2c-4.5,0-8,3.5-8,7.8c0,4.3,3.6,8,7.8,8c4.4,0,8-3.6,8-8
				C339.4,304.6,335.9,301.2,331.6,301.2z"/>
			<rect x="348.6" y="287.9" class="st1" width="12.1" height="94.7"/>
			<path class="st0" d="M439.3,330.3h-12.1v30.3c0,8.2,1.5,12.7,5.5,17c4.2,4.3,9.9,6.6,16.8,6.6c7,0,12.7-2.2,16.9-6.6
				c4-4.3,5.5-8.8,5.5-17v-30.3h-12.1v30.1c0,8.9-3.2,13-10.3,13c-7,0-10.2-4.1-10.2-13V330.3z"/>
			<path class="st0" d="M479.9,330.3v52.3H492v-25.2c0-12.9,3-17.6,11.1-17.6c7.5,0,9.8,3.4,9.8,13.7v29.2h12.1v-32.1
				c0-14.7-6.1-21.6-18.9-21.6c-5.7,0-9.3,1.6-14,6.2v-4.8H479.9z"/>
		</g>
		<path class="st2" d="M125.7,334.4c-10.2,0-18.5,8.3-18.5,18.5c0,10.2,8.3,18.5,18.5,18.5c10.2,0,18.5-8.3,18.5-18.5
			C144.1,342.7,135.9,334.4,125.7,334.4z M96.9,352.9c0-15.9,12.9-28.8,28.8-28.8c15.9,0,28.8,12.9,28.8,28.8c0,1.1-0.1,2.1-0.2,3.1
			c-0.2,2.8,1.8,4.9,4.6,4.9c4.7,0,5.2-6.1,5.2-8.1c0-21.3-17.2-38.5-38.5-38.5s-38.5,17.2-38.5,38.5c0,21.3,17.2,38.5,38.5,38.5
			c11.3,0,21.4-4.9,28.5-12.6l7.9,6.6c-8.9,10-21.9,16.3-36.4,16.3c-27,0-48.8-21.9-48.8-48.8c0-27,21.9-48.8,48.8-48.8
			c27,0,48.8,21.9,48.8,48.8c0,10.8-5.2,19.6-15.5,19.6c-4.6,0-7.3-2.1-8.9-4.4c-5.1,8.2-14.1,13.6-24.5,13.6
			C109.8,381.7,96.9,368.8,96.9,352.9z M125.7,344.4c4.7,0,8.5,3.8,8.5,8.5c0,4.7-3.8,8.5-8.5,8.5c-4.7,0-8.5-3.8-8.5-8.5
			C117.2,348.2,121,344.4,125.7,344.4z"/>
	</g>
</g>
<g>
	<g>
		<path class="st3" d="M356.5,408.4c-0.1,1.5,0.9,2.6,2.4,2.6c1.5,0,2.8-1.2,2.9-2.7c0.1-1.5-0.9-2.6-2.4-2.6
			C358,405.7,356.6,406.9,356.5,408.4z M356.1,408.3c0.2-1.7,1.7-3.1,3.4-3.1c1.7,0,3,1.4,2.8,3.1c-0.2,1.7-1.7,3.1-3.4,3.1
			C357.2,411.4,355.9,410,356.1,408.3z M358.5,406.5C358.5,406.5,358.5,406.5,358.5,406.5l0.8,0h0c0.2,0,0.3,0,0.4,0
			c0.1,0,0.2,0,0.3,0.1c0.4,0.1,0.6,0.4,0.6,0.8c0,0.1,0,0.1,0,0.2c-0.1,0.5-0.4,0.9-1,1l0.5,1.5c0,0,0,0,0,0c0,0,0,0,0,0
			c0,0,0,0,0,0h-0.5c0,0,0,0,0,0l-0.5-1.4l-0.3,0h0h-0.3l-0.3,1.4c0,0,0,0,0,0h-0.4c0,0,0,0,0,0c0,0,0,0,0,0l0.3-1.4l0,0l0.2-1.1
			L358.5,406.5z M359.2,406.9h-0.3l-0.1,0.7l-0.1,0.7h0.3h0c0.2,0,0.3,0,0.4,0c0.1,0,0.2,0,0.3,0c0.3-0.1,0.5-0.3,0.6-0.6
			c0.1-0.3-0.1-0.5-0.4-0.6c-0.1,0-0.1,0-0.2,0C359.5,407,359.4,407,359.2,406.9L359.2,406.9z"/>
		<path class="st3" d="M226.8,392.7c0.3,0,0.7,0,1,0.1c0,0,0,0,0,0c0,0,0,0,0,0l-1,5.1c0,0,0,0,0,0c0,0,0,0,0,0
			c-0.2,0-0.5-0.1-0.8-0.1c-3.6,0-5,3.5-5.5,6.4l-1.3,6.8c0,0,0,0,0,0h-5.2c0,0,0,0,0,0c0,0,0,0,0,0l3.4-18c0,0,0,0,0,0h4.6
			c0,0,0,0,0,0c0,0,0,0,0,0l-0.2,1.2c-0.2,1.2-0.6,1.8-0.8,2.2l0,0.1c-0.1,0.2,0,0.3,0.2,0.4c0.1,0.1,0.4,0,0.4-0.1l0-0.1
			c0.1-0.4,0.3-1.2,1-2C223.7,393.5,225.2,392.7,226.8,392.7z"/>
		<path class="st4" d="M284.5,392.8c2.2,0,3.8,0.5,4.6,0.9c0,0,0,0,0,0l-0.8,3.9c0,0,0,0,0,0c0,0,0,0,0,0c-0.9-0.5-2.4-1-4-1
			c-1.4,0-2.3,0.6-2.3,1.5c0,0.7,0.7,1.3,2.1,2c1.9,0.9,4,2.3,4,4.9c0,1.6-0.5,3-1.6,4.1c-1.4,1.4-3.8,2.2-6.6,2.2
			c-2.2,0-4.3-0.6-5.4-1.4c0,0,0,0,0,0l0.8-4c0,0,0,0,0,0c0,0,0,0,0,0c1.2,0.7,3.5,1.5,5.2,1.5c1.3,0,2.2-0.6,2.2-1.6
			c0-0.9-0.6-1.5-2.2-2.3c-2.5-1.3-3.8-2.8-3.8-4.7C276.7,395.3,279.8,392.8,284.5,392.8z"/>
		<path class="st3" d="M262.2,386.9h5.2c0,0,0,0,0,0c0,0,0,0,0,0l-2.7,14.3c0,0,0,0,0,0c0,0,0,0,0,0l7-8.1c0,0,0,0,0,0h5.7
			c0,0,0,0,0,0c0,0,0,0,0,0c0,0,0,0,0,0l-7.2,8.2l4.4,9.6c0,0,0,0,0,0c0,0,0,0,0,0c0,0,0,0,0,0H269c0,0,0,0,0,0l-4.3-9.5
			c0,0,0,0,0,0c0,0,0,0,0,0l-1.8,9.5c0,0,0,0,0,0h-5.2c0,0,0,0,0,0c0,0,0,0,0,0L262.2,386.9C262.1,386.9,262.2,386.9,262.2,386.9z"
			/>
		<path class="st4" d="M255.1,392.8c1.3,0,2.7,0.2,3.6,0.6c0,0,0,0,0,0l-0.8,4.2c0,0,0,0,0,0c0,0,0,0,0,0c-0.8-0.5-1.8-0.7-2.9-0.7
			c-3.8,0-6,3.3-6,6.5c0,2.7,1.8,3.6,3.5,3.6c1.5,0,2.8-0.3,4.4-1.1c0,0,0,0,0,0c0,0,0,0,0,0l-0.8,4.4c0,0,0,0,0,0
			c-1.2,0.6-3.1,1-5.1,1c-4.6,0-7.5-2.9-7.5-7.3C243.5,397.6,248.5,392.8,255.1,392.8z"/>
		<path class="st4" d="M346.7,400.2C346.7,400.2,346.7,400.2,346.7,400.2c2.2-0.1,3.4-0.4,4-1c0.3-0.3,0.4-0.6,0.4-1.1
			c0-0.9-0.8-1.5-1.9-1.5c-1.7,0-3,1.1-3.6,2.3c0,0,0,0.1-0.1,0.1c-0.5,0.9-0.7,1-1.1,1.3l-0.1,0c-0.1,0.1-0.1,0.3,0,0.5
			c0.1,0.1,0.3,0.2,0.4,0.1l0-0.1C345.2,400.5,345.3,400.3,346.7,400.2z M349.9,392.8c3.7,0,6.2,2.2,6.2,5.4c0,1.5-0.5,2.7-1.4,3.6
			c-1.6,1.6-4.5,2.3-8.8,2.4h0c-1,0-1.3-0.5-1.5-0.9l0-0.1c-0.1-0.1-0.3-0.1-0.5,0c-0.1,0.1-0.2,0.3-0.1,0.4l0,0
			c0.5,0.4,0.6,0.5,0.8,1.2c0.1,0.4,0.2,0.7,0.4,1c0.7,0.9,1.9,1.3,3.4,1.3c2.2,0,4.1-0.5,6.2-1.7c0,0,0,0,0,0c0,0,0,0,0,0l-0.8,4.4
			c0,0,0,0,0,0c-2.5,1.3-5.5,1.4-6.6,1.4c-4.9,0-7.7-2.7-7.7-7.5c0-2.8,1-5.5,2.8-7.6C344.2,394,346.9,392.8,349.9,392.8z"/>
		<path class="st3" d="M296.9,407.4c2.8,0,4.8-3.9,4.8-7.4c0-0.8-0.2-2.9-2.1-2.9c-2,0-3.6,2.2-4.3,5.6
			C295.1,403.9,294.4,407.4,296.9,407.4z M296.5,393l-0.2,0.8c-0.2,1.3-0.6,1.8-0.9,2.1l0,0.1c-0.1,0.2,0,0.3,0.1,0.4
			c0.1,0.1,0.4,0.1,0.5-0.1l0-0.1c0.1-0.4,0.3-1.1,1.2-1.9c1.2-1,2.7-1.6,4.2-1.6c3.5,0,5.8,2.7,5.8,6.8c0,4.3-2.1,8.8-5.8,10.8
			c-2.9,1.5-5.6,1.2-6.9,0.2c-0.3-0.2-0.4-0.9-0.4-1.1l0-0.1c-0.1-0.2-0.3-0.2-0.4-0.2c-0.1,0-0.3,0.2-0.2,0.4l0,0.1
			c0.2,0.4,0.4,0.7,0.4,1.1l-1.1,6c0,0,0,0,0,0h-5.2c0,0,0,0,0,0c0,0,0,0,0,0l4.5-23.6c0,0,0,0,0,0L296.5,393
			C296.5,393,296.5,393,296.5,393C296.5,393,296.5,393,296.5,393z"/>
		<path class="st4" d="M336.8,392.8c1.3,0,2.7,0.2,3.6,0.6c0,0,0,0,0,0l-0.8,4.2c0,0,0,0,0,0c0,0,0,0,0,0c-0.8-0.5-1.8-0.7-2.9-0.7
			c-3.8,0-6,3.3-6,6.5c0,2.7,1.8,3.6,3.5,3.6c1.5,0,2.8-0.3,4.4-1.1c0,0,0,0,0,0c0,0,0,0,0,0l-0.8,4.4c0,0,0,0,0,0
			c-1.2,0.6-3.1,1-5.1,1c-4.6,0-7.5-2.9-7.5-7.3C325.2,397.6,330.2,392.8,336.8,392.8z"/>
		<path class="st3" d="M315.4,397.8c-1.4,1.4-2.5,4.1-2.5,6.2c0,1.9,0.7,3,1.9,3c1.9,0,3.6-2,4.2-5c0.1-0.7,0.3-1.3,0.3-1.9
			c0.1-0.6,0.2-1.1,0.1-1.5c-0.1-1.3-0.7-1.9-1.9-1.9C316.8,396.8,316.1,397.2,315.4,397.8z M317.3,411l0.2-0.8
			c0.1-0.7,0.7-1.7,0.9-2l0-0.1c0.1-0.2,0-0.4-0.2-0.4c-0.2-0.1-0.4,0-0.4,0.2l0,0.1c-0.1,0.4-0.3,1.2-1.1,2c-1,1-2.5,1.5-4.1,1.5
			c-3.5,0-5.1-3.1-5.1-6.2c0-3.6,1.4-7.1,3.7-9.4c2-2,4.5-3,7.3-3c2.1,0,3.7,0.6,4.7,1.8c1.5,1.8,1.4,4.5,1,6.4l-1.9,10c0,0,0,0,0,0
			L317.3,411C317.4,411,317.4,411,317.3,411C317.3,411,317.3,411,317.3,411z"/>
		<path class="st3" d="M233.7,397.8c-1.4,1.4-2.5,4.1-2.5,6.2c0,1.9,0.7,3,1.9,3c1.9,0,3.6-2,4.2-5c0.1-0.7,0.3-1.3,0.4-1.9
			c0.1-0.6,0.2-1.1,0.1-1.5c-0.1-1.3-0.7-1.9-1.9-1.9C235.1,396.8,234.4,397.2,233.7,397.8z M235.7,411l0.2-0.8
			c0.2-0.7,0.7-1.7,0.9-2l0-0.1c0.1-0.2,0-0.4-0.2-0.4c-0.2-0.1-0.4,0-0.5,0.2l0,0.1c-0.1,0.4-0.3,1.2-1.1,2c-1,1-2.5,1.5-4.1,1.5
			c-3.5,0-5.1-3.1-5.1-6.2c0-3.6,1.4-7.1,3.7-9.4c2-2,4.5-3,7.3-3c2.1,0,3.7,0.6,4.7,1.8c1.5,1.8,1.3,4.5,1,6.4l-1.9,10c0,0,0,0,0,0
			L235.7,411C235.7,411,235.7,411,235.7,411C235.7,411,235.7,411,235.7,411z"/>
	</g>
	<g>
		<path class="st4" d="M192.6,411.2c2.3,0,4.4-1.8,4.4-5v0c0-3.2-2.2-5-4.4-5c-1.6,0-2.6,0.8-3.3,1.8v-5.3h-2.2V411h2.2v-1.5
			C190,410.4,191,411.2,192.6,411.2z M192.1,409.3c-1.5,0-2.8-1.2-2.8-3.1v0c0-1.8,1.3-3.1,2.8-3.1c1.5,0,2.7,1.2,2.7,3.1v0
			C194.8,408.1,193.6,409.3,192.1,409.3z"/>
		<path class="st4" d="M202.5,408.5l-2.7-7.1h-2.4l4,9.6c-0.4,0.8-0.7,1.1-1.4,1.1c-0.5,0-0.9-0.1-1.3-0.4l-0.7,1.6
			c0.7,0.4,1.4,0.6,2.3,0.6c1.5,0,2.4-0.7,3.2-2.7l3.8-9.8H205L202.5,408.5z"/>
	</g>
</g>
</svg>
