<?xml version="1.0" encoding="utf-8"?>
<!-- Generator: Adobe Illustrator 21.0.0, SVG Export Plug-In . SVG Version: 6.00 Build 0)  -->
<svg version="1.1" id="Layer_1" xmlns="http://www.w3.org/2000/svg" xmlns:xlink="http://www.w3.org/1999/xlink" x="0px" y="0px"
	 viewBox="0 0 960 560" style="enable-background:new 0 0 960 560;" xml:space="preserve">
<style type="text/css">
	.st0{fill:#C02126;}
	.st1{fill:#646569;}
</style>
<g>
	<g>
		<path class="st0" d="M374.3,323.6h-7v4.3h6.8v2.5h-6.8v6h7v2.5h-9.6v-18h9.6V323.6z"/>
		<path class="st0" d="M376.7,327.7h2.5v1c0.5-0.5,0.9-0.9,1.3-1.1s0.8-0.3,1.4-0.3c1.2,0,2.2,0.6,2.9,1.7c0.8-1.1,1.9-1.7,3.2-1.7
			c2.5,0,3.7,1.5,3.7,4.6v7h-2.5v-6.3c0-1.1-0.1-1.9-0.4-2.3c-0.3-0.5-0.7-0.7-1.3-0.7c-0.7,0-1.2,0.3-1.5,0.8s-0.5,1.4-0.5,2.6v5.8
			H383v-6.3c0-2-0.6-3-1.7-3c-0.7,0-1.2,0.3-1.6,0.8c-0.3,0.5-0.5,1.4-0.5,2.6v5.8h-2.5L376.7,327.7L376.7,327.7z"/>
		<path class="st0" d="M402.6,327.7h2.5V339h-2.5v-1.2c-1,1-2.2,1.5-3.4,1.5c-1.5,0-2.8-0.6-3.8-1.7c-1-1.2-1.5-2.6-1.5-4.3
			c0-1.7,0.5-3.1,1.5-4.2s2.2-1.7,3.7-1.7c1.3,0,2.4,0.5,3.4,1.6L402.6,327.7L402.6,327.7z M396.5,333.3c0,1.1,0.3,2,0.8,2.7
			c0.6,0.7,1.3,1,2.2,1c0.9,0,1.7-0.3,2.3-1c0.6-0.7,0.9-1.6,0.9-2.6s-0.3-1.9-0.9-2.6s-1.3-1-2.3-1c-0.9,0-1.6,0.3-2.2,1
			C396.8,331.4,396.5,332.3,396.5,333.3z"/>
		<path class="st0" d="M407.4,323c0-0.5,0.2-0.9,0.5-1.2c0.3-0.3,0.7-0.5,1.2-0.5s0.8,0.2,1.2,0.5c0.3,0.3,0.5,0.7,0.5,1.2
			s-0.2,0.9-0.5,1.2c-0.3,0.3-0.7,0.5-1.2,0.5s-0.8-0.2-1.2-0.5C407.6,323.9,407.4,323.4,407.4,323z M410.3,327.7V339h-2.5v-11.3
			H410.3z"/>
		<path class="st0" d="M415.5,319.4V339H413v-19.6H415.5z"/>
		<path class="st0" d="M435.5,334.6H428l-1.9,4.4h-2.8l8.6-19.1l8.3,19.1h-2.9L435.5,334.6z M434.5,332.1l-2.6-6.1l-2.7,6.1H434.5z"
			/>
		<path class="st0" d="M443.9,327.7v6.5c0,1.9,0.7,2.8,2.2,2.8c1.4,0,2.2-0.9,2.2-2.8v-6.5h2.5v6.6c0,0.9-0.1,1.7-0.3,2.3
			c-0.2,0.6-0.6,1.1-1.1,1.6c-0.9,0.8-1.9,1.2-3.3,1.2c-1.3,0-2.4-0.4-3.3-1.2c-0.5-0.5-0.9-1-1.1-1.6c-0.2-0.5-0.3-1.3-0.3-2.3
			v-6.6H443.9z"/>
		<path class="st0" d="M456,330.1v8.9h-2.5v-8.9h-1.1v-2.4h1.1v-4.2h2.5v4.2h2v2.4H456z"/>
		<path class="st0" d="M458.8,333.3c0-1.6,0.6-3,1.7-4.2c1.1-1.1,2.5-1.7,4.1-1.7s3,0.6,4.2,1.7c1.1,1.2,1.7,2.6,1.7,4.3
			c0,1.7-0.6,3.1-1.7,4.3c-1.1,1.1-2.5,1.7-4.2,1.7c-1.6,0-3-0.6-4.1-1.7C459.4,336.4,458.8,335,458.8,333.3z M461.4,333.3
			c0,1.1,0.3,2,0.9,2.7s1.4,1,2.4,1s1.8-0.3,2.4-1s0.9-1.5,0.9-2.6s-0.3-2-0.9-2.6c-0.6-0.7-1.4-1-2.4-1s-1.8,0.3-2.4,1
			C461.7,331.4,461.4,332.2,461.4,333.3z"/>
		<path class="st0" d="M472.7,327.7h2.5v1c0.5-0.5,0.9-0.9,1.3-1.1s0.8-0.3,1.4-0.3c1.2,0,2.2,0.6,2.9,1.7c0.8-1.1,1.9-1.7,3.2-1.7
			c2.5,0,3.7,1.5,3.7,4.6v7h-2.5v-6.3c0-1.1-0.1-1.9-0.4-2.3c-0.3-0.5-0.7-0.7-1.3-0.7c-0.7,0-1.2,0.3-1.5,0.8s-0.5,1.4-0.5,2.6v5.8
			H479v-6.3c0-2-0.6-3-1.7-3c-0.7,0-1.2,0.3-1.6,0.8c-0.3,0.5-0.5,1.4-0.5,2.6v5.8h-2.5L472.7,327.7L472.7,327.7z"/>
		<path class="st0" d="M498.5,327.7h2.5V339h-2.5v-1.2c-1,1-2.2,1.5-3.4,1.5c-1.5,0-2.8-0.6-3.8-1.7c-1-1.2-1.5-2.6-1.5-4.3
			c0-1.7,0.5-3.1,1.5-4.2s2.2-1.7,3.7-1.7c1.3,0,2.4,0.5,3.4,1.6L498.5,327.7L498.5,327.7z M492.5,333.3c0,1.1,0.3,2,0.8,2.7
			c0.6,0.7,1.3,1,2.2,1c0.9,0,1.7-0.3,2.3-1c0.6-0.7,0.9-1.6,0.9-2.6s-0.3-1.9-0.9-2.6s-1.3-1-2.3-1c-0.9,0-1.6,0.3-2.2,1
			C492.8,331.4,492.5,332.3,492.5,333.3z"/>
		<path class="st0" d="M506.4,330.1v8.9h-2.5v-8.9h-1.1v-2.4h1.1v-4.2h2.5v4.2h2v2.4H506.4z"/>
		<path class="st0" d="M509.2,323c0-0.5,0.2-0.9,0.5-1.2c0.3-0.3,0.7-0.5,1.2-0.5s0.8,0.2,1.2,0.5c0.3,0.3,0.5,0.7,0.5,1.2
			s-0.2,0.9-0.5,1.2c-0.3,0.3-0.7,0.5-1.2,0.5s-0.8-0.2-1.2-0.5C509.3,323.9,509.2,323.4,509.2,323z M512.1,327.7V339h-2.5v-11.3
			H512.1z"/>
		<path class="st0" d="M514.2,333.3c0-1.6,0.6-3,1.7-4.2c1.1-1.1,2.5-1.7,4.1-1.7s3,0.6,4.2,1.7c1.1,1.2,1.7,2.6,1.7,4.3
			c0,1.7-0.6,3.1-1.7,4.3c-1.1,1.1-2.5,1.7-4.2,1.7c-1.6,0-3-0.6-4.1-1.7C514.8,336.4,514.2,335,514.2,333.3z M516.8,333.3
			c0,1.1,0.3,2,0.9,2.7c0.6,0.7,1.4,1,2.4,1s1.8-0.3,2.4-1c0.6-0.7,0.9-1.5,0.9-2.6s-0.3-2-0.9-2.6c-0.6-0.7-1.4-1-2.4-1
			s-1.8,0.3-2.4,1C517.1,331.4,516.8,332.2,516.8,333.3z"/>
		<path class="st0" d="M528.1,327.7h2.5v1c0.9-0.9,1.9-1.4,3-1.4c1.3,0,2.3,0.4,3,1.2c0.6,0.7,0.9,1.9,0.9,3.5v6.9H535v-6.3
			c0-1.1-0.2-1.9-0.5-2.3s-0.8-0.7-1.6-0.7s-1.4,0.3-1.8,0.9c-0.3,0.6-0.5,1.6-0.5,3v5.5h-2.5L528.1,327.7L528.1,327.7z"/>
	</g>
	<g>
		<g>
			<path class="st0" d="M597.3,260.3h-12.1v6c-4.2-4.7-9.9-7.3-16.4-7.3c-14.2,0-24.5,11.8-24.5,28.1c0,15.7,10.3,27.2,24.4,27.2
				c6.6,0,11.6-2.2,16.5-7.5v7.3c0,10.9-4.3,16.3-13.3,16.3c-4.8,0-9.6-2.4-11.7-6.1c-1.2-2.1-1.6-4.1-2-8.6h-11.8
				c0.1,15.7,9.8,25.5,25.4,25.5c8.9,0,16.7-3.6,21-10.1c3.5-5,4.5-9.6,4.5-19.8L597.3,260.3L597.3,260.3z M571,269.7
				c8.7,0,14.7,6.8,14.7,16.7c0,10.2-5.8,17-14.5,17c-8.8,0-14.5-6.6-14.5-16.8C556.6,276.4,562.3,269.7,571,269.7z"/>
			<path class="st1" d="M364.5,260.3v52.3h12v-27c0-11.1,3-15.9,9.7-15.9c5.4,0,8,4.5,8,13.9v29h12v-27c0-11.2,3-15.9,9.7-15.9
				c5.8,0,8,3.9,8,13.8v29.1h12v-32.3c0-14-6-21.4-17.6-21.4c-6.4,0-11.7,2.7-15.4,7.7c-3.2-5-8.1-7.7-13.9-7.7
				c-5.2,0-7.9,1.4-12.4,6.2v-4.8L364.5,260.3L364.5,260.3z"/>
			<path class="st1" d="M481.1,260.3v6.1c-5.2-5.3-9.7-7.5-16.3-7.5c-14,0-24.7,11.7-24.7,27.2c0,16.4,10.4,28.1,25,28.1
				c6.3,0,10.4-1.9,16-7.1v5.5h12.1v-52.3L481.1,260.3L481.1,260.3z M466.9,269.7c8.8,0,14.9,7,14.9,16.8c0,10.1-6.1,16.9-14.9,16.9
				c-8.5,0-14.5-7.1-14.5-16.9C452.4,276.8,458.6,269.7,466.9,269.7z"/>
			<path class="st1" d="M514.8,260.3h-12.1v52.3h12.1V260.3z M508.9,231.2c-4.5,0-8,3.5-8,7.8s3.6,8,7.8,8c4.4,0,8-3.6,8-8
				C516.7,234.6,513.2,231.2,508.9,231.2z"/>
			<rect x="525.9" y="217.9" class="st1" width="12.1" height="94.7"/>
			<path class="st0" d="M616.6,260.3h-12.1v30.3c0,8.2,1.5,12.7,5.5,17c4.2,4.3,9.9,6.6,16.8,6.6c7,0,12.7-2.2,16.9-6.6
				c4-4.3,5.5-8.8,5.5-17v-30.3h-12.1v30.1c0,8.9-3.2,13-10.3,13c-7,0-10.2-4.1-10.2-13L616.6,260.3L616.6,260.3z"/>
			<path class="st0" d="M657.2,260.3v52.3h12.1v-25.2c0-12.9,3-17.6,11.1-17.6c7.5,0,9.8,3.4,9.8,13.7v29.2h12.1v-32.1
				c0-14.7-6.1-21.6-18.9-21.6c-5.7,0-9.3,1.6-14,6.2v-4.8h-12.2V260.3z"/>
		</g>
		<path class="st0" d="M302.9,264.4c-10.2,0-18.5,8.3-18.5,18.5s8.3,18.5,18.5,18.5s18.5-8.3,18.5-18.5S313.1,264.4,302.9,264.4z
			 M274.1,282.9c0-15.9,12.9-28.8,28.8-28.8s28.8,12.9,28.8,28.8c0,1.1-0.1,2.1-0.2,3.1c-0.2,2.8,1.8,4.9,4.6,4.9
			c4.7,0,5.2-6.1,5.2-8.1c0-21.3-17.2-38.5-38.5-38.5s-38.5,17.2-38.5,38.5s17.2,38.5,38.5,38.5c11.3,0,21.4-4.9,28.5-12.6l7.9,6.6
			c-8.9,10-21.9,16.3-36.4,16.3c-27,0-48.8-21.9-48.8-48.8c0-27,21.9-48.8,48.8-48.8c27,0,48.8,21.9,48.8,48.8
			c0,10.8-5.2,19.6-15.5,19.6c-4.6,0-7.3-2.1-8.9-4.4c-5.1,8.2-14.1,13.6-24.5,13.6C287,311.7,274.1,298.8,274.1,282.9z
			 M302.9,274.4c4.7,0,8.5,3.8,8.5,8.4c0,4.7-3.8,8.5-8.5,8.5s-8.5-3.8-8.5-8.5C294.5,278.2,298.2,274.4,302.9,274.4z"/>
	</g>
</g>
</svg>
