<?xml version="1.0" encoding="utf-8"?>
<!-- Generator: Adobe Illustrator 21.0.0, SVG Export Plug-In . SVG Version: 6.00 Build 0)  -->
<svg version="1.1" id="Layer_1" xmlns="http://www.w3.org/2000/svg" xmlns:xlink="http://www.w3.org/1999/xlink" x="0px" y="0px"
	 viewBox="0 0 960 560" style="enable-background:new 0 0 960 560;" xml:space="preserve">
<style type="text/css">
	.st0{fill:#C02126;}
	.st1{fill-rule:evenodd;clip-rule:evenodd;fill:#C02126;}
	.st2{fill-rule:evenodd;clip-rule:evenodd;fill:#646569;}
	.st3{fill:#646569;}
</style>
<g>
	<g>
		<path class="st0" d="M374.3,323.6h-7v4.3h6.8v2.5h-6.8v6h7v2.5h-9.6v-18h9.6V323.6z"/>
		<path class="st0" d="M376.7,327.7h2.5v1c0.5-0.5,0.9-0.9,1.3-1.1c0.4-0.2,0.8-0.3,1.4-0.3c1.2,0,2.2,0.6,2.9,1.7
			c0.8-1.1,1.9-1.7,3.2-1.7c2.5,0,3.7,1.5,3.7,4.6v7h-2.5v-6.3c0-1.1-0.1-1.9-0.4-2.3c-0.3-0.5-0.7-0.7-1.3-0.7
			c-0.7,0-1.2,0.3-1.5,0.8c-0.3,0.5-0.5,1.4-0.5,2.6v5.8H383v-6.3c0-2-0.6-3-1.7-3c-0.7,0-1.2,0.3-1.6,0.8c-0.3,0.5-0.5,1.4-0.5,2.6
			v5.8h-2.5V327.7z"/>
		<path class="st0" d="M402.6,327.7h2.5V339h-2.5v-1.2c-1,1-2.2,1.5-3.4,1.5c-1.5,0-2.8-0.6-3.8-1.7c-1-1.2-1.5-2.6-1.5-4.3
			c0-1.7,0.5-3.1,1.5-4.2c1-1.1,2.2-1.7,3.7-1.7c1.3,0,2.4,0.5,3.4,1.6V327.7z M396.5,333.3c0,1.1,0.3,2,0.8,2.7
			c0.6,0.7,1.3,1,2.2,1c0.9,0,1.7-0.3,2.3-1c0.6-0.7,0.9-1.6,0.9-2.6s-0.3-1.9-0.9-2.6c-0.6-0.7-1.3-1-2.3-1c-0.9,0-1.6,0.3-2.2,1
			C396.8,331.4,396.5,332.3,396.5,333.3z"/>
		<path class="st0" d="M407.4,323c0-0.5,0.2-0.9,0.5-1.2c0.3-0.3,0.7-0.5,1.2-0.5c0.5,0,0.8,0.2,1.2,0.5c0.3,0.3,0.5,0.7,0.5,1.2
			c0,0.5-0.2,0.9-0.5,1.2c-0.3,0.3-0.7,0.5-1.2,0.5c-0.5,0-0.8-0.2-1.2-0.5C407.6,323.9,407.4,323.4,407.4,323z M410.3,327.7V339
			h-2.5v-11.3H410.3z"/>
		<path class="st0" d="M415.5,319.4V339H413v-19.6H415.5z"/>
		<path class="st0" d="M435.5,334.6h-7.5l-1.9,4.4h-2.8l8.6-19.1l8.3,19.1h-2.9L435.5,334.6z M434.5,332.1l-2.6-6.1l-2.7,6.1H434.5z
			"/>
		<path class="st0" d="M443.9,327.7v6.5c0,1.9,0.7,2.8,2.2,2.8c1.4,0,2.2-0.9,2.2-2.8v-6.5h2.5v6.6c0,0.9-0.1,1.7-0.3,2.3
			c-0.2,0.6-0.6,1.1-1.1,1.6c-0.9,0.8-1.9,1.2-3.3,1.2c-1.3,0-2.4-0.4-3.3-1.2c-0.5-0.5-0.9-1-1.1-1.6c-0.2-0.5-0.3-1.3-0.3-2.3
			v-6.6H443.9z"/>
		<path class="st0" d="M456,330.1v8.9h-2.5v-8.9h-1.1v-2.4h1.1v-4.2h2.5v4.2h2v2.4H456z"/>
		<path class="st0" d="M458.8,333.3c0-1.6,0.6-3,1.7-4.2c1.1-1.1,2.5-1.7,4.1-1.7c1.6,0,3,0.6,4.2,1.7c1.1,1.2,1.7,2.6,1.7,4.3
			c0,1.7-0.6,3.1-1.7,4.3c-1.1,1.1-2.5,1.7-4.2,1.7c-1.6,0-3-0.6-4.1-1.7C459.4,336.4,458.8,335,458.8,333.3z M461.4,333.3
			c0,1.1,0.3,2,0.9,2.7c0.6,0.7,1.4,1,2.4,1c1,0,1.8-0.3,2.4-1c0.6-0.7,0.9-1.5,0.9-2.6c0-1.1-0.3-2-0.9-2.6c-0.6-0.7-1.4-1-2.4-1
			c-1,0-1.8,0.3-2.4,1C461.7,331.4,461.4,332.2,461.4,333.3z"/>
		<path class="st0" d="M472.7,327.7h2.5v1c0.5-0.5,0.9-0.9,1.3-1.1c0.4-0.2,0.8-0.3,1.4-0.3c1.2,0,2.2,0.6,2.9,1.7
			c0.8-1.1,1.9-1.7,3.2-1.7c2.5,0,3.7,1.5,3.7,4.6v7h-2.5v-6.3c0-1.1-0.1-1.9-0.4-2.3c-0.3-0.5-0.7-0.7-1.3-0.7
			c-0.7,0-1.2,0.3-1.5,0.8c-0.3,0.5-0.5,1.4-0.5,2.6v5.8H479v-6.3c0-2-0.6-3-1.7-3c-0.7,0-1.2,0.3-1.6,0.8c-0.3,0.5-0.5,1.4-0.5,2.6
			v5.8h-2.5V327.7z"/>
		<path class="st0" d="M498.5,327.7h2.5V339h-2.5v-1.2c-1,1-2.2,1.5-3.4,1.5c-1.5,0-2.8-0.6-3.8-1.7c-1-1.2-1.5-2.6-1.5-4.3
			c0-1.7,0.5-3.1,1.5-4.2c1-1.1,2.2-1.7,3.7-1.7c1.3,0,2.4,0.5,3.4,1.6V327.7z M492.5,333.3c0,1.1,0.3,2,0.8,2.7
			c0.6,0.7,1.3,1,2.2,1c0.9,0,1.7-0.3,2.3-1c0.6-0.7,0.9-1.6,0.9-2.6s-0.3-1.9-0.9-2.6c-0.6-0.7-1.3-1-2.3-1c-0.9,0-1.6,0.3-2.2,1
			C492.8,331.4,492.5,332.3,492.5,333.3z"/>
		<path class="st0" d="M506.4,330.1v8.9h-2.5v-8.9h-1.1v-2.4h1.1v-4.2h2.5v4.2h2v2.4H506.4z"/>
		<path class="st0" d="M509.2,323c0-0.5,0.2-0.9,0.5-1.2c0.3-0.3,0.7-0.5,1.2-0.5c0.5,0,0.8,0.2,1.2,0.5c0.3,0.3,0.5,0.7,0.5,1.2
			c0,0.5-0.2,0.9-0.5,1.2c-0.3,0.3-0.7,0.5-1.2,0.5s-0.8-0.2-1.2-0.5C509.3,323.9,509.2,323.4,509.2,323z M512.1,327.7V339h-2.5
			v-11.3H512.1z"/>
		<path class="st0" d="M514.2,333.3c0-1.6,0.6-3,1.7-4.2c1.1-1.1,2.5-1.7,4.1-1.7c1.6,0,3,0.6,4.2,1.7c1.1,1.2,1.7,2.6,1.7,4.3
			c0,1.7-0.6,3.1-1.7,4.3c-1.1,1.1-2.5,1.7-4.2,1.7c-1.6,0-3-0.6-4.1-1.7C514.8,336.4,514.2,335,514.2,333.3z M516.8,333.3
			c0,1.1,0.3,2,0.9,2.7c0.6,0.7,1.4,1,2.4,1c1,0,1.8-0.3,2.4-1c0.6-0.7,0.9-1.5,0.9-2.6c0-1.1-0.3-2-0.9-2.6c-0.6-0.7-1.4-1-2.4-1
			c-1,0-1.8,0.3-2.4,1C517.1,331.4,516.8,332.2,516.8,333.3z"/>
		<path class="st0" d="M528.1,327.7h2.5v1c0.9-0.9,1.9-1.4,3-1.4c1.3,0,2.3,0.4,3,1.2c0.6,0.7,0.9,1.9,0.9,3.5v6.9H535v-6.3
			c0-1.1-0.2-1.9-0.5-2.3c-0.3-0.4-0.8-0.7-1.6-0.7c-0.8,0-1.4,0.3-1.8,0.9c-0.3,0.6-0.5,1.6-0.5,3v5.5h-2.5V327.7z"/>
	</g>
	<g>
		<g>
			<path class="st1" d="M597.3,260.3h-12.1v6c-4.2-4.7-9.9-7.3-16.4-7.3c-14.2,0-24.5,11.8-24.5,28.1c0,15.7,10.3,27.2,24.4,27.2
				c6.6,0,11.6-2.2,16.5-7.5v7.3c0,10.9-4.3,16.3-13.3,16.3c-4.8,0-9.6-2.4-11.7-6.1c-1.2-2.1-1.6-4.1-2-8.6h-11.8
				c0.1,15.7,9.8,25.5,25.4,25.5c8.9,0,16.7-3.6,21-10.1c3.5-5,4.5-9.6,4.5-19.8V260.3z M571,269.7c8.7,0,14.7,6.8,14.7,16.7
				c0,10.2-5.8,17-14.5,17c-8.8,0-14.5-6.6-14.5-16.8C556.6,276.4,562.3,269.7,571,269.7z"/>
			<path class="st2" d="M364.5,260.3v52.3h12v-27c0-11.1,3-15.9,9.7-15.9c5.4,0,8,4.5,8,13.9v29h12v-27c0-11.2,3-15.9,9.7-15.9
				c5.8,0,8,3.9,8,13.8v29.1h12v-32.3c0-14-6-21.4-17.6-21.4c-6.4,0-11.7,2.7-15.4,7.7c-3.2-5-8.1-7.7-13.9-7.7
				c-5.2,0-7.9,1.4-12.4,6.2v-4.8H364.5z"/>
			<path class="st2" d="M481.1,260.3v6.1c-5.2-5.3-9.7-7.5-16.3-7.5c-14,0-24.7,11.7-24.7,27.2c0,16.4,10.4,28.1,25,28.1
				c6.3,0,10.4-1.9,16-7.1v5.5h12.1v-52.3H481.1z M466.9,269.7c8.8,0,14.9,7,14.9,16.8c0,10.1-6.1,16.9-14.9,16.9
				c-8.5,0-14.5-7.1-14.5-16.9C452.4,276.8,458.6,269.7,466.9,269.7z"/>
			<path class="st2" d="M514.8,260.3h-12.1v52.3h12.1V260.3z M508.9,231.2c-4.5,0-8,3.5-8,7.8c0,4.3,3.6,8,7.8,8c4.4,0,8-3.6,8-8
				C516.7,234.6,513.2,231.2,508.9,231.2z"/>
			<rect x="525.9" y="217.9" class="st2" width="12.1" height="94.7"/>
			<path class="st1" d="M616.6,260.3h-12.1v30.3c0,8.2,1.5,12.7,5.5,17c4.2,4.3,9.9,6.6,16.8,6.6c7,0,12.7-2.2,16.9-6.6
				c4-4.3,5.5-8.8,5.5-17v-30.3h-12.1v30.1c0,8.9-3.2,13-10.3,13c-7,0-10.2-4.1-10.2-13V260.3z"/>
			<path class="st1" d="M657.2,260.3v52.3h12.1v-25.2c0-12.9,3-17.6,11.1-17.6c7.5,0,9.8,3.4,9.8,13.7v29.2h12.1v-32.1
				c0-14.7-6.1-21.6-18.9-21.6c-5.7,0-9.3,1.6-14,6.2v-4.8H657.2z"/>
		</g>
		<path class="st0" d="M302.9,264.4c-10.2,0-18.5,8.3-18.5,18.5s8.3,18.5,18.5,18.5c10.2,0,18.5-8.3,18.5-18.5
			S313.1,264.4,302.9,264.4z M274.1,282.9c0-15.9,12.9-28.8,28.8-28.8c15.9,0,28.8,12.9,28.8,28.8c0,1.1-0.1,2.1-0.2,3.1
			c-0.2,2.8,1.8,4.9,4.6,4.9c4.7,0,5.2-6.1,5.2-8.1c0-21.3-17.2-38.5-38.5-38.5s-38.5,17.2-38.5,38.5c0,21.3,17.2,38.5,38.5,38.5
			c11.3,0,21.4-4.9,28.5-12.6l7.9,6.6c-8.9,10-21.9,16.3-36.4,16.3c-27,0-48.8-21.9-48.8-48.8c0-27,21.9-48.8,48.8-48.8
			c27,0,48.8,21.9,48.8,48.8c0,10.8-5.2,19.6-15.5,19.6c-4.6,0-7.3-2.1-8.9-4.4c-5.1,8.2-14.1,13.6-24.5,13.6
			C287,311.7,274.1,298.8,274.1,282.9z M302.9,274.4c4.7,0,8.5,3.8,8.5,8.4c0,4.7-3.8,8.5-8.5,8.5c-4.7,0-8.5-3.8-8.5-8.5
			C294.5,278.2,298.2,274.4,302.9,274.4z"/>
	</g>
	<g>
		<g>
			<path class="st3" d="M702.4,337.2c-0.1,0.9,0.6,1.6,1.5,1.6c0.9,0,1.7-0.7,1.8-1.6c0.1-0.9-0.6-1.6-1.5-1.6
				C703.3,335.5,702.5,336.2,702.4,337.2z M702.1,337.1c0.1-1,1-1.9,2.1-1.9c1,0,1.8,0.8,1.7,1.9c-0.1,1-1,1.9-2.1,1.9
				C702.8,339,702,338.2,702.1,337.1z M703.6,336C703.6,336,703.6,336,703.6,336l0.5,0h0c0.1,0,0.2,0,0.3,0c0.1,0,0.1,0,0.2,0
				c0.2,0.1,0.4,0.3,0.4,0.5c0,0,0,0.1,0,0.1c-0.1,0.3-0.2,0.5-0.6,0.6l0.3,0.9c0,0,0,0,0,0c0,0,0,0,0,0c0,0,0,0,0,0h-0.3
				c0,0,0,0,0,0l-0.3-0.9l-0.2,0h0h-0.2l-0.2,0.8c0,0,0,0,0,0h-0.3c0,0,0,0,0,0c0,0,0,0,0,0l0.2-0.9l0,0l0.1-0.7L703.6,336z
				 M704,336.3h-0.2l-0.1,0.4l-0.1,0.4h0.2h0c0.1,0,0.2,0,0.2,0c0.1,0,0.1,0,0.2,0c0.2-0.1,0.3-0.2,0.4-0.4c0-0.2,0-0.3-0.2-0.4
				c0,0-0.1,0-0.1,0C704.2,336.3,704.2,336.3,704,336.3L704,336.3z"/>
			<path class="st3" d="M623.2,327.6c0.2,0,0.4,0,0.6,0.1c0,0,0,0,0,0c0,0,0,0,0,0l-0.6,3.1c0,0,0,0,0,0c0,0,0,0,0,0
				c-0.1,0-0.3,0-0.5,0c-2.2,0-3,2.1-3.4,3.9l-0.8,4.2c0,0,0,0,0,0h-3.2c0,0,0,0,0,0c0,0,0,0,0,0l2.1-11c0,0,0,0,0,0h2.8
				c0,0,0,0,0,0c0,0,0,0,0,0l-0.1,0.7c-0.1,0.7-0.3,1.1-0.5,1.3l0,0c-0.1,0.1,0,0.2,0.1,0.3c0.1,0,0.2,0,0.3-0.1l0,0
				c0.1-0.2,0.2-0.7,0.6-1.2C621.4,328.1,622.3,327.6,623.2,327.6z"/>
			<path class="st2" d="M658.5,327.6c1.3,0,2.3,0.3,2.8,0.6c0,0,0,0,0,0l-0.5,2.4c0,0,0,0,0,0c0,0,0,0,0,0c-0.5-0.3-1.5-0.6-2.5-0.6
				c-0.8,0-1.4,0.3-1.4,0.9c0,0.4,0.4,0.8,1.3,1.2c1.1,0.6,2.4,1.4,2.4,3c0,1-0.3,1.8-1,2.5c-0.9,0.9-2.3,1.3-4,1.3
				c-1.3,0-2.6-0.4-3.3-0.8c0,0,0,0,0,0l0.5-2.4c0,0,0,0,0,0c0,0,0,0,0,0c0.7,0.4,2.1,0.9,3.1,0.9c0.8,0,1.3-0.4,1.3-1
				c0-0.5-0.4-0.9-1.3-1.4c-1.5-0.8-2.3-1.7-2.3-2.9C653.7,329.2,655.6,327.6,658.5,327.6z"/>
			<path class="st3" d="M644.8,324h3.2c0,0,0,0,0,0c0,0,0,0,0,0l-1.7,8.7c0,0,0,0,0,0c0,0,0,0,0,0l4.3-4.9c0,0,0,0,0,0h3.5
				c0,0,0,0,0,0c0,0,0,0,0,0c0,0,0,0,0,0l-4.4,5l2.7,5.9c0,0,0,0,0,0c0,0,0,0,0,0c0,0,0,0,0,0H649c0,0,0,0,0,0l-2.6-5.8c0,0,0,0,0,0
				c0,0,0,0,0,0l-1.1,5.8c0,0,0,0,0,0h-3.2c0,0,0,0,0,0c0,0,0,0,0,0L644.8,324C644.8,324,644.8,324,644.8,324z"/>
			<path class="st2" d="M640.6,327.7c0.8,0,1.6,0.1,2.2,0.4c0,0,0,0,0,0l-0.5,2.6c0,0,0,0,0,0c0,0,0,0,0,0c-0.5-0.3-1.1-0.4-1.8-0.4
				c-2.3,0-3.7,2-3.7,3.9c0,1.6,1.1,2.2,2.1,2.2c0.9,0,1.7-0.2,2.7-0.7c0,0,0,0,0,0c0,0,0,0,0,0l-0.5,2.7c0,0,0,0,0,0
				c-0.7,0.4-1.9,0.6-3.1,0.6c-2.8,0-4.6-1.7-4.6-4.5C633.5,330.6,636.5,327.7,640.6,327.7z"/>
			<path class="st2" d="M696.4,332.2C696.4,332.2,696.4,332.2,696.4,332.2c1.3-0.1,2.1-0.3,2.5-0.6c0.2-0.2,0.3-0.4,0.3-0.7
				c0-0.6-0.5-0.9-1.2-0.9c-1,0-1.8,0.6-2.2,1.4c0,0,0,0,0,0.1c-0.3,0.6-0.4,0.6-0.7,0.8l0,0c-0.1,0.1-0.1,0.2,0,0.3
				c0.1,0.1,0.2,0.1,0.3,0l0,0C695.5,332.3,695.5,332.2,696.4,332.2z M698.3,327.6c2.3,0,3.8,1.3,3.8,3.3c0,0.9-0.3,1.6-0.9,2.2
				c-1,1-2.7,1.4-5.4,1.4h0c-0.6,0-0.8-0.3-0.9-0.5l0,0c-0.1-0.1-0.2-0.1-0.3,0c-0.1,0.1-0.1,0.2,0,0.3l0,0c0.3,0.3,0.4,0.3,0.5,0.8
				c0.1,0.2,0.1,0.4,0.3,0.6c0.4,0.5,1.2,0.8,2.1,0.8c1.3,0,2.5-0.3,3.8-1.1c0,0,0,0,0,0c0,0,0,0,0,0l-0.5,2.7c0,0,0,0,0,0
				c-1.5,0.8-3.3,0.9-4,0.9c-3,0-4.7-1.7-4.7-4.6c0-1.7,0.6-3.4,1.7-4.6C694.9,328.4,696.5,327.6,698.3,327.6z"/>
			<path class="st3" d="M666,336.6c1.7,0,2.9-2.4,2.9-4.5c0-0.5-0.1-1.8-1.3-1.8c-1.2,0-2.2,1.4-2.6,3.4
				C664.9,334.4,664.5,336.6,666,336.6z M665.8,327.8l-0.1,0.5c-0.1,0.8-0.4,1.1-0.5,1.3l0,0c-0.1,0.1,0,0.2,0.1,0.3
				c0.1,0,0.2,0,0.3-0.1l0,0c0.1-0.2,0.2-0.7,0.7-1.2c0.7-0.6,1.6-1,2.6-1c2.1,0,3.5,1.6,3.5,4.1c0,2.6-1.3,5.4-3.6,6.6
				c-1.8,0.9-3.4,0.7-4.2,0.1c-0.2-0.2-0.2-0.5-0.3-0.7l0,0c0-0.1-0.2-0.2-0.3-0.1c-0.1,0-0.2,0.1-0.1,0.2l0,0
				c0.1,0.3,0.2,0.4,0.2,0.7l-0.7,3.7c0,0,0,0,0,0h-3.2c0,0,0,0,0,0c0,0,0,0,0,0l2.7-14.4c0,0,0,0,0,0L665.8,327.8
				C665.8,327.8,665.8,327.8,665.8,327.8C665.8,327.8,665.8,327.8,665.8,327.8z"/>
			<path class="st2" d="M690.4,327.7c0.8,0,1.6,0.1,2.2,0.4c0,0,0,0,0,0l-0.5,2.6c0,0,0,0,0,0c0,0,0,0,0,0c-0.5-0.3-1.1-0.4-1.8-0.4
				c-2.3,0-3.7,2-3.7,3.9c0,1.6,1.1,2.2,2.1,2.2c0.9,0,1.7-0.2,2.7-0.7c0,0,0,0,0,0c0,0,0,0,0,0l-0.5,2.7c0,0,0,0,0,0
				c-0.7,0.4-1.9,0.6-3.1,0.6c-2.8,0-4.6-1.7-4.6-4.5C683.3,330.6,686.3,327.7,690.4,327.7z"/>
			<path class="st3" d="M677.3,330.7c-0.9,0.9-1.5,2.5-1.5,3.8c0,1.1,0.4,1.8,1.2,1.8c1.2,0,2.2-1.2,2.5-3c0.1-0.4,0.2-0.8,0.2-1.2
				c0.1-0.4,0.1-0.7,0.1-0.9c0-0.8-0.4-1.2-1.2-1.2C678.2,330.1,677.7,330.3,677.3,330.7z M678.5,338.7l0.1-0.5
				c0.1-0.4,0.4-1,0.6-1.2l0,0c0-0.1,0-0.2-0.1-0.3c-0.1,0-0.2,0-0.3,0.1l0,0c-0.1,0.2-0.2,0.8-0.7,1.2c-0.6,0.6-1.5,0.9-2.5,0.9
				c-2.1,0-3.1-1.9-3.1-3.8c0-2.2,0.9-4.3,2.3-5.7c1.2-1.2,2.7-1.8,4.5-1.8c1.3,0,2.3,0.4,2.9,1.1c0.9,1.1,0.8,2.7,0.6,3.9l-1.2,6.1
				c0,0,0,0,0,0L678.5,338.7C678.5,338.8,678.5,338.8,678.5,338.7C678.5,338.7,678.5,338.7,678.5,338.7z"/>
			<path class="st3" d="M627.5,330.7c-0.9,0.9-1.5,2.5-1.5,3.8c0,1.1,0.4,1.8,1.2,1.8c1.2,0,2.2-1.2,2.5-3c0.1-0.4,0.2-0.8,0.2-1.2
				c0.1-0.4,0.1-0.7,0.1-0.9c0-0.8-0.4-1.2-1.2-1.2C628.4,330.1,627.9,330.3,627.5,330.7z M628.7,338.7l0.1-0.5
				c0.1-0.4,0.4-1,0.6-1.2l0,0c0-0.1,0-0.2-0.1-0.3c-0.1,0-0.2,0-0.3,0.1l0,0c-0.1,0.2-0.2,0.8-0.7,1.2c-0.6,0.6-1.5,0.9-2.5,0.9
				c-2.1,0-3.1-1.9-3.1-3.8c0-2.2,0.8-4.3,2.3-5.7c1.2-1.2,2.7-1.8,4.5-1.8c1.3,0,2.3,0.4,2.9,1.1c0.9,1.1,0.8,2.7,0.6,3.9l-1.2,6.1
				c0,0,0,0,0,0L628.7,338.7C628.7,338.8,628.7,338.8,628.7,338.7C628.7,338.7,628.7,338.7,628.7,338.7z"/>
		</g>
		<g>
			<path class="st2" d="M602.4,338.9c1.4,0,2.7-1.1,2.7-3v0c0-1.9-1.3-3-2.7-3c-0.9,0-1.6,0.5-2,1.1v-3.2h-1.3v8.1h1.3v-0.9
				C600.8,338.4,601.4,338.9,602.4,338.9z M602.1,337.7c-0.9,0-1.7-0.8-1.7-1.9v0c0-1.1,0.8-1.9,1.7-1.9c0.9,0,1.7,0.7,1.7,1.9v0
				C603.8,337,603,337.7,602.1,337.7z"/>
			<path class="st2" d="M608.5,337.2l-1.6-4.3h-1.4l2.4,5.9c-0.2,0.5-0.5,0.7-0.8,0.7c-0.3,0-0.5-0.1-0.8-0.2l-0.5,1
				c0.4,0.2,0.8,0.4,1.4,0.4c0.9,0,1.5-0.4,1.9-1.6l2.3-6H610L608.5,337.2z"/>
		</g>
	</g>
</g>
</svg>
