<?xml version="1.0" encoding="utf-8"?>
<!-- Generator: Adobe Illustrator 21.0.0, SVG Export Plug-In . SVG Version: 6.00 Build 0)  -->
<svg version="1.1" id="Layer_1" xmlns="http://www.w3.org/2000/svg" xmlns:xlink="http://www.w3.org/1999/xlink" x="0px" y="0px"
	 viewBox="0 0 612 792" style="enable-background:new 0 0 612 792;" xml:space="preserve">
<style type="text/css">
	.st0{fill:#231F20;}
	.st1{fill-rule:evenodd;clip-rule:evenodd;fill:#231F20;}
</style>
<g>
	<g>
		<path class="st0" d="M261.6,558.9h-2.9v1.8h2.8v1.1h-2.8v2.5h2.9v1.1h-4v-7.5h4V558.9z"/>
		<path class="st0" d="M262.6,560.6h1.1v0.4c0.2-0.2,0.4-0.4,0.5-0.4c0.2-0.1,0.3-0.1,0.6-0.1c0.5,0,0.9,0.2,1.2,0.7
			c0.3-0.5,0.8-0.7,1.3-0.7c1,0,1.5,0.6,1.5,1.9v2.9h-1.1v-2.6c0-0.5-0.1-0.8-0.2-1c-0.1-0.2-0.3-0.3-0.5-0.3
			c-0.3,0-0.5,0.1-0.6,0.3c-0.1,0.2-0.2,0.6-0.2,1.1v2.4h-1.1v-2.6c0-0.8-0.2-1.3-0.7-1.3c-0.3,0-0.5,0.1-0.6,0.3
			c-0.1,0.2-0.2,0.6-0.2,1.1v2.4h-1.1V560.6z"/>
		<path class="st0" d="M273.3,560.6h1.1v4.7h-1.1v-0.5c-0.4,0.4-0.9,0.6-1.4,0.6c-0.6,0-1.2-0.2-1.6-0.7c-0.4-0.5-0.6-1.1-0.6-1.8
			c0-0.7,0.2-1.3,0.6-1.8c0.4-0.5,0.9-0.7,1.5-0.7c0.5,0,1,0.2,1.4,0.7V560.6z M270.8,562.9c0,0.5,0.1,0.8,0.4,1.1
			c0.2,0.3,0.5,0.4,0.9,0.4c0.4,0,0.7-0.1,0.9-0.4c0.2-0.3,0.4-0.7,0.4-1.1c0-0.4-0.1-0.8-0.4-1.1c-0.2-0.3-0.6-0.4-0.9-0.4
			c-0.4,0-0.7,0.1-0.9,0.4C271,562.1,270.8,562.5,270.8,562.9z"/>
		<path class="st0" d="M275.4,558.6c0-0.2,0.1-0.4,0.2-0.5c0.1-0.1,0.3-0.2,0.5-0.2c0.2,0,0.4,0.1,0.5,0.2c0.1,0.1,0.2,0.3,0.2,0.5
			c0,0.2-0.1,0.4-0.2,0.5c-0.1,0.1-0.3,0.2-0.5,0.2c-0.2,0-0.4-0.1-0.5-0.2C275.4,559,275.4,558.8,275.4,558.6z M276.6,560.6v4.7
			h-1.1v-4.7H276.6z"/>
		<path class="st0" d="M278.7,557.1v8.2h-1.1v-8.2H278.7z"/>
		<path class="st0" d="M287.1,563.5H284l-0.8,1.8H282l3.6-7.9l3.5,7.9h-1.2L287.1,563.5z M286.6,562.4l-1.1-2.5l-1.1,2.5H286.6z"/>
		<path class="st0" d="M290.5,560.6v2.7c0,0.8,0.3,1.2,0.9,1.2c0.6,0,0.9-0.4,0.9-1.2v-2.7h1.1v2.7c0,0.4,0,0.7-0.1,1
			c-0.1,0.2-0.2,0.5-0.5,0.7c-0.4,0.3-0.8,0.5-1.4,0.5c-0.5,0-1-0.2-1.4-0.5c-0.2-0.2-0.4-0.4-0.5-0.7c-0.1-0.2-0.1-0.5-0.1-1v-2.7
			H290.5z"/>
		<path class="st0" d="M295.6,561.6v3.7h-1.1v-3.7h-0.4v-1h0.4v-1.7h1.1v1.7h0.8v1H295.6z"/>
		<path class="st0" d="M296.8,562.9c0-0.7,0.2-1.3,0.7-1.7c0.5-0.5,1-0.7,1.7-0.7c0.7,0,1.3,0.2,1.7,0.7c0.5,0.5,0.7,1.1,0.7,1.8
			c0,0.7-0.2,1.3-0.7,1.8c-0.5,0.5-1.1,0.7-1.7,0.7c-0.7,0-1.3-0.2-1.7-0.7C297,564.2,296.8,563.6,296.8,562.9z M297.8,562.9
			c0,0.5,0.1,0.8,0.4,1.1c0.3,0.3,0.6,0.4,1,0.4c0.4,0,0.7-0.1,1-0.4c0.2-0.3,0.4-0.6,0.4-1.1c0-0.5-0.1-0.8-0.4-1.1
			c-0.2-0.3-0.6-0.4-1-0.4c-0.4,0-0.7,0.1-1,0.4C298,562.1,297.8,562.5,297.8,562.9z"/>
		<path class="st0" d="M302.5,560.6h1.1v0.4c0.2-0.2,0.4-0.4,0.5-0.4c0.2-0.1,0.3-0.1,0.6-0.1c0.5,0,0.9,0.2,1.2,0.7
			c0.3-0.5,0.8-0.7,1.3-0.7c1,0,1.5,0.6,1.5,1.9v2.9h-1.1v-2.6c0-0.5-0.1-0.8-0.2-1c-0.1-0.2-0.3-0.3-0.5-0.3
			c-0.3,0-0.5,0.1-0.6,0.3c-0.1,0.2-0.2,0.6-0.2,1.1v2.4h-1.1v-2.6c0-0.8-0.2-1.3-0.7-1.3c-0.3,0-0.5,0.1-0.6,0.3
			c-0.1,0.2-0.2,0.6-0.2,1.1v2.4h-1.1V560.6z"/>
		<path class="st0" d="M313.3,560.6h1.1v4.7h-1.1v-0.5c-0.4,0.4-0.9,0.6-1.4,0.6c-0.6,0-1.2-0.2-1.6-0.7c-0.4-0.5-0.6-1.1-0.6-1.8
			c0-0.7,0.2-1.3,0.6-1.8c0.4-0.5,0.9-0.7,1.5-0.7c0.5,0,1,0.2,1.4,0.7V560.6z M310.8,562.9c0,0.5,0.1,0.8,0.4,1.1
			c0.2,0.3,0.5,0.4,0.9,0.4c0.4,0,0.7-0.1,0.9-0.4c0.2-0.3,0.4-0.7,0.4-1.1c0-0.4-0.1-0.8-0.4-1.1c-0.2-0.3-0.6-0.4-0.9-0.4
			c-0.4,0-0.7,0.1-0.9,0.4C310.9,562.1,310.8,562.5,310.8,562.9z"/>
		<path class="st0" d="M316.5,561.6v3.7h-1.1v-3.7H315v-1h0.5v-1.7h1.1v1.7h0.8v1H316.5z"/>
		<path class="st0" d="M317.7,558.6c0-0.2,0.1-0.4,0.2-0.5c0.1-0.1,0.3-0.2,0.5-0.2c0.2,0,0.4,0.1,0.5,0.2c0.1,0.1,0.2,0.3,0.2,0.5
			c0,0.2-0.1,0.4-0.2,0.5c-0.1,0.1-0.3,0.2-0.5,0.2c-0.2,0-0.4-0.1-0.5-0.2C317.8,559,317.7,558.8,317.7,558.6z M318.9,560.6v4.7
			h-1.1v-4.7H318.9z"/>
		<path class="st0" d="M319.8,562.9c0-0.7,0.2-1.3,0.7-1.7c0.5-0.5,1-0.7,1.7-0.7c0.7,0,1.3,0.2,1.7,0.7c0.5,0.5,0.7,1.1,0.7,1.8
			c0,0.7-0.2,1.3-0.7,1.8c-0.5,0.5-1.1,0.7-1.8,0.7c-0.7,0-1.3-0.2-1.7-0.7C320,564.2,319.8,563.6,319.8,562.9z M320.9,562.9
			c0,0.5,0.1,0.8,0.4,1.1c0.2,0.3,0.6,0.4,1,0.4c0.4,0,0.7-0.1,1-0.4c0.2-0.3,0.4-0.6,0.4-1.1c0-0.5-0.1-0.8-0.4-1.1
			c-0.2-0.3-0.6-0.4-1-0.4c-0.4,0-0.7,0.1-1,0.4C321,562.1,320.9,562.5,320.9,562.9z"/>
		<path class="st0" d="M325.6,560.6h1.1v0.4c0.4-0.4,0.8-0.6,1.2-0.6c0.5,0,0.9,0.2,1.2,0.5c0.3,0.3,0.4,0.8,0.4,1.4v2.9h-1.1v-2.6
			c0-0.5-0.1-0.8-0.2-1c-0.1-0.2-0.3-0.3-0.7-0.3c-0.4,0-0.6,0.1-0.7,0.4c-0.1,0.2-0.2,0.6-0.2,1.2v2.3h-1.1V560.6z"/>
	</g>
	<g>
		<g>
			<path class="st1" d="M354.3,532.5h-5v2.5c-1.8-2-4.1-3-6.8-3c-5.9,0-10.2,4.9-10.2,11.7c0,6.5,4.3,11.3,10.1,11.3
				c2.7,0,4.8-0.9,6.9-3.1v3c0,4.6-1.8,6.8-5.5,6.8c-2,0-4-1-4.9-2.5c-0.5-0.9-0.7-1.7-0.8-3.6h-4.9c0.1,6.5,4.1,10.6,10.5,10.6
				c3.7,0,6.9-1.5,8.7-4.2c1.4-2.1,1.9-4,1.9-8.2V532.5z M343.4,536.5c3.6,0,6.1,2.8,6.1,6.9c0,4.2-2.4,7.1-6,7.1c-3.7,0-6-2.7-6-7
				C337.4,539.3,339.8,536.5,343.4,536.5z"/>
			<path class="st1" d="M257.5,532.5v21.8h5v-11.2c0-4.6,1.2-6.6,4-6.6c2.3,0,3.3,1.9,3.3,5.8v12h5v-11.2c0-4.7,1.2-6.6,4-6.6
				c2.4,0,3.3,1.6,3.3,5.7v12.1h5v-13.4c0-5.8-2.5-8.9-7.3-8.9c-2.7,0-4.9,1.1-6.4,3.2c-1.3-2.1-3.4-3.2-5.8-3.2
				c-2.2,0-3.3,0.6-5.2,2.6v-2H257.5z"/>
			<path class="st1" d="M306,532.5v2.5c-2.2-2.2-4-3.1-6.8-3.1c-5.8,0-10.3,4.9-10.3,11.3c0,6.8,4.3,11.7,10.4,11.7
				c2.6,0,4.3-0.8,6.7-2.9v2.3h5v-21.8H306z M300.1,536.5c3.7,0,6.2,2.9,6.2,7c0,4.2-2.5,7-6.2,7c-3.5,0-6-2.9-6-7
				C294.1,539.4,296.7,536.5,300.1,536.5z"/>
			<path class="st1" d="M320,532.5h-5v21.8h5V532.5z M317.6,520.4c-1.9,0-3.3,1.4-3.3,3.3c0,1.8,1.5,3.3,3.3,3.3
				c1.8,0,3.3-1.5,3.3-3.3C320.8,521.9,319.4,520.4,317.6,520.4z"/>
			<rect x="324.6" y="514.9" class="st1" width="5" height="39.4"/>
			<path class="st1" d="M362.4,532.5h-5v12.6c0,3.4,0.6,5.3,2.3,7.1c1.8,1.8,4.1,2.7,7,2.7c2.9,0,5.3-0.9,7-2.7
				c1.7-1.8,2.3-3.7,2.3-7.1v-12.6h-5v12.5c0,3.7-1.3,5.4-4.3,5.4c-2.9,0-4.2-1.7-4.2-5.4V532.5z"/>
			<path class="st1" d="M379.3,532.5v21.8h5v-10.5c0-5.4,1.2-7.3,4.6-7.3c3.1,0,4.1,1.4,4.1,5.7v12.1h5V541c0-6.1-2.5-9-7.9-9
				c-2.4,0-3.9,0.7-5.8,2.6v-2H379.3z"/>
		</g>
		<path class="st0" d="M231.9,534.3c-4.2,0-7.7,3.4-7.7,7.7c0,4.2,3.4,7.7,7.7,7.7c4.2,0,7.7-3.4,7.7-7.7
			C239.6,537.7,236.1,534.3,231.9,534.3z M219.9,541.9c0-6.6,5.4-12,12-12c6.6,0,12,5.4,12,12c0,0.4,0,0.9-0.1,1.3
			c-0.1,1.2,0.8,2.1,1.9,2.1c2,0,2.2-2.5,2.2-3.4c0-8.8-7.2-16-16-16c-8.8,0-16,7.2-16,16c0,8.8,7.2,16,16,16c4.7,0,8.9-2,11.9-5.2
			l3.3,2.8c-3.7,4.2-9.1,6.8-15.1,6.8c-11.2,0-20.3-9.1-20.3-20.3s9.1-20.3,20.3-20.3c11.2,0,20.3,9.1,20.3,20.3
			c0,4.5-2.1,8.2-6.5,8.2c-1.9,0-3.1-0.9-3.7-1.8c-2.1,3.4-5.9,5.6-10.2,5.6C225.3,553.9,219.9,548.6,219.9,541.9z M231.9,538.4
			c1.9,0,3.5,1.6,3.5,3.5s-1.6,3.5-3.5,3.5s-3.5-1.6-3.5-3.5S230,538.4,231.9,538.4z"/>
	</g>
	<g>
		<g>
			<path class="st0" d="M398.1,564.5c0,0.4,0.2,0.7,0.6,0.7c0.4,0,0.7-0.3,0.7-0.7c0-0.4-0.2-0.7-0.6-0.7
				C398.4,563.8,398.1,564.1,398.1,564.5z M398,564.5c0-0.4,0.4-0.8,0.9-0.8c0.4,0,0.8,0.4,0.7,0.8c0,0.4-0.4,0.8-0.9,0.8
				C398.2,565.3,397.9,564.9,398,564.5z M398.6,564.1C398.6,564.1,398.6,564.1,398.6,564.1l0.2,0h0c0.1,0,0.1,0,0.1,0
				c0,0,0.1,0,0.1,0c0.1,0,0.2,0.1,0.2,0.2c0,0,0,0,0,0.1c0,0.1-0.1,0.2-0.2,0.3l0.1,0.4h0c0,0,0,0,0,0l0,0h-0.1c0,0,0,0,0,0
				l-0.1-0.4l-0.1,0h0h-0.1l-0.1,0.4c0,0,0,0,0,0h-0.1h0c0,0,0,0,0,0l0.1-0.4v0l0.1-0.3L398.6,564.1z M398.7,564.2L398.7,564.2
				l-0.1,0.2l0,0.2h0.1h0c0,0,0.1,0,0.1,0c0,0,0,0,0.1,0c0.1,0,0.1-0.1,0.2-0.2c0-0.1,0-0.1-0.1-0.2c0,0,0,0-0.1,0
				C398.8,564.2,398.8,564.2,398.7,564.2L398.7,564.2z"/>
			<path class="st0" d="M365.1,560.6c0.1,0,0.2,0,0.2,0c0,0,0,0,0,0c0,0,0,0,0,0l-0.3,1.3c0,0,0,0,0,0c0,0,0,0,0,0c0,0-0.1,0-0.2,0
				c-0.9,0-1.3,0.9-1.4,1.6l-0.3,1.7c0,0,0,0,0,0h-1.3c0,0,0,0,0,0c0,0,0,0,0,0l0.9-4.6c0,0,0,0,0,0h1.2c0,0,0,0,0,0c0,0,0,0,0,0
				l-0.1,0.3c-0.1,0.3-0.1,0.5-0.2,0.5l0,0c0,0,0,0.1,0,0.1c0,0,0.1,0,0.1,0l0,0c0-0.1,0.1-0.3,0.3-0.5
				C364.4,560.7,364.7,560.6,365.1,560.6z"/>
			<path class="st1" d="M379.8,560.6c0.6,0,1,0.1,1.2,0.2c0,0,0,0,0,0l-0.2,1c0,0,0,0,0,0c0,0,0,0,0,0c-0.2-0.1-0.6-0.2-1-0.2
				c-0.3,0-0.6,0.1-0.6,0.4c0,0.2,0.2,0.3,0.5,0.5c0.5,0.2,1,0.6,1,1.2c0,0.4-0.1,0.8-0.4,1c-0.4,0.4-1,0.6-1.7,0.6
				c-0.5,0-1.1-0.2-1.4-0.4c0,0,0,0,0,0l0.2-1c0,0,0,0,0,0c0,0,0,0,0,0c0.3,0.2,0.9,0.4,1.3,0.4c0.3,0,0.6-0.2,0.6-0.4
				c0-0.2-0.2-0.4-0.6-0.6c-0.6-0.3-1-0.7-1-1.2C377.8,561.2,378.6,560.6,379.8,560.6z"/>
			<path class="st0" d="M374.1,559.1h1.3c0,0,0,0,0,0c0,0,0,0,0,0l-0.7,3.6c0,0,0,0,0,0c0,0,0,0,0,0l1.8-2c0,0,0,0,0,0h1.4
				c0,0,0,0,0,0c0,0,0,0,0,0c0,0,0,0,0,0l-1.8,2.1l1.1,2.4c0,0,0,0,0,0c0,0,0,0,0,0c0,0,0,0,0,0h-1.4c0,0,0,0,0,0l-1.1-2.4
				c0,0,0,0,0,0c0,0,0,0,0,0l-0.5,2.4c0,0,0,0,0,0H373c0,0,0,0,0,0c0,0,0,0,0,0L374.1,559.1C374.1,559.1,374.1,559.1,374.1,559.1z"
				/>
			<path class="st1" d="M372.3,560.6c0.3,0,0.7,0.1,0.9,0.2c0,0,0,0,0,0l-0.2,1.1c0,0,0,0,0,0c0,0,0,0,0,0c-0.2-0.1-0.4-0.2-0.7-0.2
				c-1,0-1.5,0.8-1.5,1.6c0,0.7,0.5,0.9,0.9,0.9c0.4,0,0.7-0.1,1.1-0.3c0,0,0,0,0,0c0,0,0,0,0,0l-0.2,1.1c0,0,0,0,0,0
				c-0.3,0.2-0.8,0.2-1.3,0.2c-1.2,0-1.9-0.7-1.9-1.9C369.4,561.8,370.7,560.6,372.3,560.6z"/>
			<path class="st1" d="M395.6,562.5C395.6,562.5,395.6,562.5,395.6,562.5c0.5,0,0.9-0.1,1-0.3c0.1-0.1,0.1-0.2,0.1-0.3
				c0-0.2-0.2-0.4-0.5-0.4c-0.4,0-0.8,0.3-0.9,0.6c0,0,0,0,0,0c-0.1,0.2-0.2,0.3-0.3,0.3l0,0c0,0,0,0.1,0,0.1c0,0,0.1,0,0.1,0l0,0
				C395.2,562.5,395.2,562.5,395.6,562.5z M396.4,560.6c0.9,0,1.6,0.5,1.6,1.4c0,0.4-0.1,0.7-0.4,0.9c-0.4,0.4-1.1,0.6-2.2,0.6l0,0
				c-0.3,0-0.3-0.1-0.4-0.2l0,0c0,0-0.1,0-0.1,0c0,0-0.1,0.1,0,0.1l0,0c0.1,0.1,0.2,0.1,0.2,0.3c0,0.1,0.1,0.2,0.1,0.2
				c0.2,0.2,0.5,0.3,0.9,0.3c0.6,0,1-0.1,1.6-0.4c0,0,0,0,0,0c0,0,0,0,0,0l-0.2,1.1c0,0,0,0,0,0c-0.6,0.3-1.4,0.4-1.7,0.4
				c-1.2,0-2-0.7-2-1.9c0-0.7,0.3-1.4,0.7-1.9C394.9,560.9,395.6,560.6,396.4,560.6z"/>
			<path class="st0" d="M382.9,564.3c0.7,0,1.2-1,1.2-1.9c0-0.2-0.1-0.7-0.5-0.7c-0.5,0-0.9,0.6-1.1,1.4
				C382.5,563.4,382.3,564.3,382.9,564.3z M382.8,560.6l0,0.2c-0.1,0.3-0.2,0.5-0.2,0.5l0,0c0,0,0,0.1,0,0.1c0,0,0.1,0,0.1,0l0,0
				c0-0.1,0.1-0.3,0.3-0.5c0.3-0.3,0.7-0.4,1.1-0.4c0.9,0,1.5,0.7,1.5,1.7c0,1.1-0.5,2.2-1.5,2.7c-0.7,0.4-1.4,0.3-1.7,0
				c-0.1-0.1-0.1-0.2-0.1-0.3l0,0c0,0-0.1-0.1-0.1,0c0,0-0.1,0.1-0.1,0.1l0,0c0.1,0.1,0.1,0.2,0.1,0.3l-0.3,1.5c0,0,0,0,0,0h-1.3
				c0,0,0,0,0,0c0,0,0,0,0,0l1.1-6c0,0,0,0,0,0L382.8,560.6C382.8,560.6,382.8,560.6,382.8,560.6
				C382.8,560.6,382.8,560.6,382.8,560.6z"/>
			<path class="st1" d="M393.1,560.6c0.3,0,0.7,0.1,0.9,0.2c0,0,0,0,0,0l-0.2,1.1c0,0,0,0,0,0c0,0,0,0,0,0c-0.2-0.1-0.4-0.2-0.7-0.2
				c-1,0-1.5,0.8-1.5,1.6c0,0.7,0.5,0.9,0.9,0.9c0.4,0,0.7-0.1,1.1-0.3c0,0,0,0,0,0c0,0,0,0,0,0l-0.2,1.1c0,0,0,0,0,0
				c-0.3,0.2-0.8,0.2-1.3,0.2c-1.2,0-1.9-0.7-1.9-1.9C390.1,561.8,391.4,560.6,393.1,560.6z"/>
			<path class="st0" d="M387.6,561.9c-0.4,0.4-0.6,1-0.6,1.6c0,0.5,0.2,0.8,0.5,0.8c0.5,0,0.9-0.5,1.1-1.3c0-0.2,0.1-0.3,0.1-0.5
				s0-0.3,0-0.4c0-0.3-0.2-0.5-0.5-0.5C388,561.6,387.8,561.7,387.6,561.9z M388.1,565.2l0-0.2c0-0.2,0.2-0.4,0.2-0.5l0,0
				c0,0,0-0.1,0-0.1c0,0-0.1,0-0.1,0l0,0c0,0.1-0.1,0.3-0.3,0.5c-0.3,0.2-0.6,0.4-1,0.4c-0.9,0-1.3-0.8-1.3-1.6
				c0-0.9,0.4-1.8,0.9-2.4c0.5-0.5,1.1-0.8,1.9-0.8c0.5,0,0.9,0.2,1.2,0.5c0.4,0.5,0.3,1.1,0.2,1.6l-0.5,2.5c0,0,0,0,0,0
				L388.1,565.2C388.1,565.2,388.1,565.2,388.1,565.2C388.1,565.2,388.1,565.2,388.1,565.2z"/>
			<path class="st0" d="M366.9,561.9c-0.4,0.4-0.6,1-0.6,1.6c0,0.5,0.2,0.8,0.5,0.8c0.5,0,0.9-0.5,1.1-1.3c0-0.2,0.1-0.3,0.1-0.5
				c0-0.2,0-0.3,0-0.4c0-0.3-0.2-0.5-0.5-0.5C367.3,561.6,367.1,561.7,366.9,561.9z M367.4,565.2l0-0.2c0-0.2,0.2-0.4,0.2-0.5l0,0
				c0,0,0-0.1,0-0.1c0,0-0.1,0-0.1,0l0,0c0,0.1-0.1,0.3-0.3,0.5c-0.3,0.2-0.6,0.4-1,0.4c-0.9,0-1.3-0.8-1.3-1.6
				c0-0.9,0.4-1.8,0.9-2.4c0.5-0.5,1.1-0.8,1.9-0.8c0.5,0,0.9,0.2,1.2,0.5c0.4,0.5,0.3,1.1,0.2,1.6l-0.5,2.5c0,0,0,0,0,0
				L367.4,565.2C367.4,565.2,367.4,565.2,367.4,565.2C367.4,565.2,367.4,565.2,367.4,565.2z"/>
		</g>
		<g>
			<path class="st1" d="M356.5,565.2c0.6,0,1.1-0.5,1.1-1.3v0c0-0.8-0.6-1.3-1.1-1.3c-0.4,0-0.6,0.2-0.8,0.5v-1.3h-0.6v3.4h0.6v-0.4
				C355.8,565,356.1,565.2,356.5,565.2z M356.3,564.8c-0.4,0-0.7-0.3-0.7-0.8v0c0-0.5,0.3-0.8,0.7-0.8c0.4,0,0.7,0.3,0.7,0.8v0
				C357,564.5,356.7,564.8,356.3,564.8z"/>
			<path class="st1" d="M359,564.6l-0.7-1.8h-0.6l1,2.4c-0.1,0.2-0.2,0.3-0.3,0.3c-0.1,0-0.2,0-0.3-0.1l-0.2,0.4
				c0.2,0.1,0.3,0.1,0.6,0.1c0.4,0,0.6-0.2,0.8-0.7l1-2.5h-0.6L359,564.6z"/>
		</g>
	</g>
</g>
</svg>
