<?xml version="1.0" encoding="utf-8"?>
<!-- Generator: Adobe Illustrator 21.0.0, SVG Export Plug-In . SVG Version: 6.00 Build 0)  -->
<svg version="1.1" id="Layer_1" xmlns="http://www.w3.org/2000/svg" xmlns:xlink="http://www.w3.org/1999/xlink" x="0px" y="0px"
	 viewBox="0 0 391 85.4" style="enable-background:new 0 0 391 85.4;" xml:space="preserve">
<style type="text/css">
	.st0{fill:#C50022;}
	.st1{fill-rule:evenodd;clip-rule:evenodd;}
</style>
<g>
	<g>
		<path class="st0" d="M41.2,22.1c-1.6,3.3-0.9,6,1.4,6c2.3,0,5.5-2.6,7-5.9c1.6-3.3,0.9-6-1.4-6C45.9,16.2,42.8,18.9,41.2,22.1z
			 M60.1,10.3C60.1,10.3,60.2,10.3,60.1,10.3C60.2,10.4,60.2,10.4,60.1,10.3c-1.4,4-3.7,8.5-5.9,11.9c-4.8,7.1-11.7,11.6-15.4,10
			c-3.7-1.6-2.8-8.7,2-15.8c1.1-1.6,2.3-3.1,3.5-4.4c0,0,0,0,0,0c0,0,0-0.1-0.1-0.1c0,0,0,0,0,0c-1.5,0.2-3,0.5-4.6,0.9c0,0,0,0,0,0
			C23.4,32.8,16.5,58.6,17.4,81.7v0c0,0,0,0.1-0.1,0.1c0,0,0,0,0,0C7.8,77.9,0.8,68.6,0.1,56.9l0-0.1C-1.1,36,15.5,14.7,37.1,9.2
			C45.5,7,53.5,7.6,60.1,10.3z"/>
		<path d="M54,66.5c-1.6,1.1-3.2,2.1-4.9,3c0,0,0,0,0,0c0,0-0.1,0-0.1-0.1c-0.3-5-1.4-9.8-3.3-13.9c-5-10.8-13.6-11.6-19.4-1.8
			c-3.5,6-5.1,14.5-4.7,22.7c0,0,0,0,0,0c6.1,1.9,13.1,2.1,20.6,0.2c21.7-5.5,38.2-26.8,37-47.6C78.3,10.8,63.8-1,45.7,0.1
			c0,0,0,0,0,0c-1.8,1.8-3.4,3.6-5,5.4c0,0,0,0,0,0c0,0,0,0.1,0.1,0.1c0,0,0,0,0,0c10.6-1.3,19.2,0.8,24.8,5.3c0,0,0,0,0,0
			c0,0,0,0,0,0C46.3,38,48.7,53.4,54,66.5C54,66.4,54,66.4,54,66.5C54,66.4,54,66.5,54,66.5z"/>
	</g>
	<g>
		<path d="M233,35.5c4.5,0,7.9,1,9.5,1.9c0,0,0,0,0,0.1l-1.6,8.2c0,0,0,0,0,0c0,0,0,0,0,0c-1.8-1-5-2.1-8.4-2.1
			c-2.9,0-4.7,1.2-4.7,3.2c0,1.4,1.4,2.7,4.4,4.2c3.9,2,8.4,4.9,8.4,10.1c0,3.4-1.1,6.3-3.4,8.5c-3,3-7.9,4.6-13.7,4.5
			c-4.5-0.1-9-1.2-11.3-2.9c0,0,0,0,0-0.1l1.6-8.3c0,0,0,0,0,0c0,0,0,0,0.1,0c2.4,1.5,7.2,3.2,10.7,3.2c2.7,0,4.6-1.3,4.6-3.3
			c0-1.8-1.3-3.1-4.6-4.7c-5.2-2.6-7.8-5.9-7.8-9.8C216.7,40.7,223.2,35.5,233,35.5z"/>
		<path d="M112.8,35.4c0.7,0,1.5,0.1,2,0.2c0,0,0,0,0,0c0,0,0,0,0,0l-2.1,10.7c0,0,0,0,0,0c0,0,0,0,0,0c-0.4-0.1-1-0.2-1.7-0.2
			c-7.5,0-10.4,7.3-11.5,13.4l-2.7,14.2c0,0,0,0-0.1,0H85.9c0,0,0,0,0,0c0,0,0,0,0,0l7.1-37.4c0,0,0,0,0.1,0l9.6,0c0,0,0,0,0,0
			c0,0,0,0,0,0l-1.2,6.4c0,0,0,0.1,0.1,0.1c0.1,0,0.1,0,0.2,0C104.5,38.1,108.4,35.4,112.8,35.4z"/>
		<path d="M127.3,46.1c-3,3-5.2,8.5-5.2,12.9c0,3.9,1.4,6.3,3.9,6.3c4,0,7.5-4.2,8.6-10.3c0.3-1.4,0.5-2.8,0.7-4
			c0.2-1.2,0.3-2.3,0.3-3.1c-0.1-2.6-1.5-4-3.9-4C130.3,43.9,128.7,44.6,127.3,46.1z M131.4,73.5C131.4,73.4,131.4,73.4,131.4,73.5
			l0.9-4.7c0-0.1,0-0.1-0.1-0.1c-0.1,0-0.1,0-0.1,0.1c-2,3.4-6,5.6-10.5,5.6c-7.3,0-10.6-6.5-10.6-13c0-7.4,2.9-14.7,7.8-19.6
			c4.1-4.1,9.3-6.2,15.2-6.2c4.5,0,7.8,1.3,9.8,3.8c3.1,3.7,2.8,9.3,2.1,13.3l-4,20.7c0,0,0,0-0.1,0L131.4,73.5
			C131.4,73.5,131.4,73.5,131.4,73.5z"/>
		<path d="M258.7,65.9c5.8,0,10-8.2,10-15.5c0-1.7-0.4-6-4.4-6c-4.1,0-7.6,4.7-8.9,11.8C255,58.7,253.7,65.9,258.7,65.9z
			 M268.2,35.5c7.3,0,12,5.5,12,14.1c0,9-4.3,18.3-12.2,22.5c-7.1,3.8-13.5,2.1-15.5-0.8c0,0,0,0,0,0l-2.7,14.1c0,0,0,0-0.1,0H239
			c0,0,0,0,0,0c0,0,0,0,0,0l9.4-49.2c0,0,0,0,0.1,0l9.6,0c0,0,0,0,0,0c0,0,0,0,0,0l-1,5c0,0.1,0,0.1,0,0.1c0.1,0,0.1,0,0.2-0.1
			l0-0.1C260.1,37.5,264,35.5,268.2,35.5z"/>
		<path d="M186.5,23.2h10.8c0,0,0,0,0,0c0,0,0,0,0,0L191.7,53c0,0,0,0,0,0c0,0,0,0,0,0l14.5-16.8c0,0,0,0,0,0h11.9c0,0,0,0,0.1,0
			c0,0,0,0,0,0c0,0,0,0,0,0l-15.1,17l9.2,20c0,0,0,0,0,0c0,0,0,0,0,0c0,0,0,0,0,0h-11.7c0,0,0,0-0.1,0l-8.9-19.7c0,0,0,0,0,0
			c0,0,0,0,0,0l-3.7,19.7c0,0,0,0-0.1,0H177c0,0,0,0,0,0c0,0,0,0,0,0L186.5,23.2C186.5,23.3,186.5,23.2,186.5,23.2z"/>
		<path class="st1" d="M371.6,46.7c0-1.9-1.6-3.1-4-3.1c-4.7,0-7.7,3.8-8.6,7.4l0,0.1c0,0,0,0,0,0c0,0,0,0,0,0h0.1
			c6.4,0,10-0.6,11.5-2.2C371.3,48.3,371.6,47.6,371.6,46.7z M369,35.5c7.8,0,12.9,4.5,12.9,11.2c0,3.1-1,5.6-3,7.6
			c-3.6,3.5-10.4,5.2-20.9,4.9l-0.1,0c0,0,0,0,0,0c0,0,0,0,0,0l0,0.1c0,1.1,0.4,2.6,1.1,3.6c1.4,1.8,3.9,2.8,7.1,2.8
			c4.6,0,8.5-1.1,12.8-3.6c0,0,0,0,0.1,0c0,0,0,0,0,0.1l-1.7,9.1c0,0,0,0,0,0c-5.2,2.7-11.4,3-13.8,3c-10.2,0-16.1-5.7-16.1-15.6
			c0-5.7,2.1-11.5,5.8-15.8C357.2,38.1,362.8,35.5,369,35.5z"/>
		<path d="M382,69.6c-0.2,2.3,1.5,4.1,3.7,4.1c2.3,0,4.4-1.9,4.6-4.2c0.2-2.3-1.5-4.1-3.7-4.1C384.3,65.4,382.2,67.3,382,69.6z
			 M381.4,69.5c0.2-2.7,2.6-4.8,5.2-4.8c2.7,0,4.6,2.2,4.4,4.8c-0.2,2.6-2.6,4.8-5.2,4.8C383.1,74.3,381.1,72.2,381.4,69.5z
			 M385.1,66.7C385.1,66.7,385.1,66.7,385.1,66.7l1.2,0l0,0c0.3,0,0.5,0,0.7,0c0.2,0,0.4,0,0.5,0.1c0.6,0.2,1,0.7,1,1.3
			c0,0.1,0,0.2,0,0.3c-0.1,0.8-0.6,1.4-1.5,1.6l0.8,2.3c0,0,0,0,0,0c0,0,0,0,0,0c0,0,0,0,0,0h-0.8c0,0,0,0,0,0l-0.7-2.2l-0.5,0h0
			h-0.5l-0.4,2.2c0,0,0,0,0,0h-0.6c0,0,0,0,0,0c0,0,0,0,0,0l0.4-2.2l0,0l0.3-1.7L385.1,66.7z M386.2,67.4h-0.5l-0.2,1.1l-0.2,1.1
			h0.5h0.1c0.3,0,0.4,0,0.6,0c0.2,0,0.3,0,0.4-0.1c0.5-0.1,0.8-0.5,0.9-1c0.1-0.5-0.1-0.8-0.6-1c-0.1,0-0.2-0.1-0.4-0.1
			C386.7,67.4,386.5,67.4,386.2,67.4L386.2,67.4z"/>
		<path d="M297.3,46.1c-3,3-5.2,8.5-5.2,12.9c0,3.9,1.4,6.3,3.9,6.3c4,0,7.5-4.2,8.6-10.3c0.3-1.4,0.5-2.8,0.7-4
			c0.2-1.2,0.3-2.3,0.3-3.1c-0.1-2.6-1.5-4-3.9-4C300.3,43.9,298.7,44.6,297.3,46.1z M301.4,73.5C301.3,73.4,301.3,73.4,301.4,73.5
			l0.9-4.7c0-0.1,0-0.1-0.1-0.1c-0.1,0-0.1,0-0.1,0.1c-2,3.4-6,5.6-10.4,5.6c-7.3,0-10.6-6.5-10.6-13c0-7.4,2.9-14.7,7.8-19.6
			c4.1-4.1,9.3-6.2,15.2-6.2c4.5,0,7.8,1.3,9.8,3.8c3.1,3.7,2.8,9.3,2,13.3l-4,20.7c0,0,0,0-0.1,0L301.4,73.5
			C301.4,73.5,301.4,73.5,301.4,73.5z"/>
		<path d="M341.8,35.6c2.8,0,5.6,0.5,7.6,1.3c0,0,0,0,0,0.1l-1.7,8.8c0,0,0,0,0,0c0,0,0,0-0.1,0c-1.7-0.9-3.7-1.4-6-1.4
			c-7.8,0-12.5,6.8-12.5,13.4c0,5.6,3.7,7.6,7.2,7.6c3.1,0,5.8-0.7,9.1-2.3c0,0,0,0,0.1,0c0,0,0,0,0,0.1l-1.7,9.1c0,0,0,0,0,0
			c-2.5,1.2-6.5,2-10.5,2c-9.5,0-15.6-6-15.6-15.2C317.6,45.7,328,35.6,341.8,35.6z"/>
		<path d="M171.8,35.6c2.8,0,5.6,0.5,7.6,1.3c0,0,0,0,0,0.1l-1.7,8.8c0,0,0,0,0,0c0,0,0,0-0.1,0c-1.7-0.9-3.7-1.4-6-1.4
			c-7.8,0-12.5,6.8-12.5,13.4c0,5.6,3.7,7.6,7.2,7.6c3.1,0,5.8-0.7,9.1-2.3c0,0,0,0,0.1,0c0,0,0,0,0,0.1l-1.7,9.1c0,0,0,0,0,0
			c-2.5,1.2-6.5,2-10.5,2c-9.5,0-15.6-6-15.6-15.2C147.6,45.7,158,35.6,171.8,35.6z"/>
	</g>
</g>
</svg>
